<svg width="70" height="51" viewBox="0 0 70 51" fill="none" xmlns="http://www.w3.org/2000/svg">
<path d="M40.7018 51V29.9152C40.7018 20.1838 42.924 12.9753 47.3684 8.28975C51.8129 3.4841 58.5965 0.720846 67.7193 0L70 9.37102C59.9415 11.1731 54.9123 16.2191 54.9123 24.5088V26.1308H64.0351V51H40.7018ZM0 51V29.9152C0 20.1838 2.22222 12.9753 6.66667 8.28975C11.1111 3.4841 17.8947 0.720846 27.0175 0L29.2982 9.37102C19.2398 11.1731 14.2105 16.0989 14.2105 24.1484C14.2105 24.3887 14.2105 24.7491 14.2105 25.2297C14.3275 25.5901 14.386 25.8905 14.386 26.1308H23.3333V51H0Z" fill="#E7E7E7"/>
</svg>
