<svg width="42" height="42" viewBox="0 0 42 42" fill="none" xmlns="http://www.w3.org/2000/svg">
<g filter="url(#filter0_d)">
<circle cx="21" cy="19" r="18" fill="white"/>
</g>
<g clip-path="url(#clip0)">
<path d="M29 14.039C28.405 14.3 27.771 14.473 27.11 14.557C27.79 14.151 28.309 13.513 28.553 12.744C27.919 13.122 27.219 13.389 26.473 13.538C25.871 12.897 25.013 12.5 24.077 12.5C22.261 12.5 20.799 13.974 20.799 15.781C20.799 16.041 20.821 16.291 20.875 16.529C18.148 16.396 15.735 15.089 14.114 13.098C13.831 13.589 13.665 14.151 13.665 14.756C13.665 15.892 14.25 16.899 15.122 17.482C14.595 17.472 14.078 17.319 13.64 17.078C13.64 17.088 13.64 17.101 13.64 17.114C13.64 18.708 14.777 20.032 16.268 20.337C16.001 20.41 15.71 20.445 15.408 20.445C15.198 20.445 14.986 20.433 14.787 20.389C15.212 21.688 16.418 22.643 17.852 22.674C16.736 23.547 15.319 24.073 13.785 24.073C13.516 24.073 13.258 24.061 13 24.028C14.453 24.965 16.175 25.5 18.032 25.5C24.068 25.5 27.368 20.5 27.368 16.166C27.368 16.021 27.363 15.881 27.356 15.742C28.007 15.28 28.554 14.703 29 14.039Z" fill="#03A9F4"/>
</g>
<defs>
<filter id="filter0_d" x="0" y="0" width="42" height="42" filterUnits="userSpaceOnUse" color-interpolation-filters="sRGB">
<feFlood flood-opacity="0" result="BackgroundImageFix"/>
<feColorMatrix in="SourceAlpha" type="matrix" values="0 0 0 0 0 0 0 0 0 0 0 0 0 0 0 0 0 0 127 0"/>
<feOffset dy="2"/>
<feGaussianBlur stdDeviation="1.5"/>
<feColorMatrix type="matrix" values="0 0 0 0 0 0 0 0 0 0 0 0 0 0 0 0 0 0 0.06 0"/>
<feBlend mode="normal" in2="BackgroundImageFix" result="effect1_dropShadow"/>
<feBlend mode="normal" in="SourceGraphic" in2="effect1_dropShadow" result="shape"/>
</filter>
<clipPath id="clip0">
<rect x="13" y="11" width="16" height="16" fill="white"/>
</clipPath>
</defs>
</svg>
