<svg width="32" height="24" viewBox="0 0 32 24" fill="none" xmlns="http://www.w3.org/2000/svg">
<path d="M28.0016 14.1523C29.0193 14.7814 30.1964 15.5013 31.0172 15.9835C31.5026 16.2687 31.6663 16.9751 31.3312 17.4275C31.1994 17.6054 31.0033 17.7246 30.7848 17.7597L29.0787 18.0339C28.8117 18.0768 28.5417 18.0984 28.2714 18.0984H27.8989C26.3921 18.0984 24.9573 18.7427 23.9563 19.8689L22.0328 21.8361L20.0044 23.466C19.7297 23.6867 19.4005 23.8292 19.0515 23.8783C18.5006 23.9557 17.9428 23.795 17.5176 23.4362L16.697 22.7439C16.3034 22.4117 15.8049 22.2295 15.2898 22.2295H14.6714C14.353 22.2295 14.0543 22.0754 13.8698 21.8159C13.6271 21.4747 13.6271 21.0171 13.8698 20.6759L13.9472 20.5671C14.0882 20.3688 14.1639 20.1316 14.1639 19.8883V19.2968C14.1639 19.1571 14.1204 19.0208 14.0394 18.9069C13.7638 18.5193 13.1841 18.5321 12.9259 18.9315L12.1548 20.1242C12.0955 20.216 12.0271 20.3017 11.9506 20.3798L10.3288 22.0385C10.2046 22.1656 10.0689 22.2809 9.92354 22.3832L9.61748 22.5984C9.06684 22.9855 8.36648 23.092 7.72564 22.8861C7.58831 22.8419 7.45578 22.784 7.33006 22.7133L4.93717 21.3673C4.79348 21.2865 4.64378 21.2168 4.48941 21.1589L2.66833 20.476C2.33452 20.3509 1.95846 20.4722 1.7607 20.7688C1.43893 21.2514 0.718533 21.2161 0.445552 20.7043L0.136461 20.1247C0.0468659 19.9567 0 19.7693 0 19.5789V1.50253C0 0.998643 0.408479 0.590164 0.912363 0.590164C1.00307 0.590164 1.09326 0.576638 1.17998 0.550032L1.35703 0.49571C2.30495 0.204871 3.32875 0.60087 3.83424 1.45388L3.87718 1.52636C3.97325 1.68847 4.08927 1.83791 4.22252 1.97116L4.85375 2.60238C5.32876 3.0774 5.97303 3.34426 6.64481 3.34426C7.20652 3.34426 7.74718 3.55806 8.15697 3.94224L8.18064 3.96443C8.4357 4.20355 8.74207 4.38118 9.07632 4.48374L10.4918 4.91803L11.6549 5.35421C11.9276 5.45645 12.1861 5.59296 12.4243 5.76044L12.7148 5.96466C13.1985 6.3048 13.5446 6.8074 13.6902 7.38057C13.9687 8.47713 14.9561 9.2459 16.0874 9.2459H16.2342C16.7092 9.2459 17.1742 9.10933 17.5738 8.85246C17.9733 8.59559 18.4383 8.45902 18.9134 8.45902H19.5352C19.7922 8.45902 20.0401 8.55414 20.2311 8.72605C20.5737 9.03436 21.0783 9.08051 21.4711 8.83947L22.0671 8.47373C22.4945 8.21148 23.0055 8.12148 23.4968 8.22196L23.7315 8.26997C24.3284 8.39206 24.8629 8.72119 25.2406 9.19922L25.5157 9.54741C25.8704 9.99634 26.1191 10.5196 26.2432 11.0781L26.4354 11.9431C26.6393 12.8604 27.2023 13.6581 28.0016 14.1523Z" fill="#FFF79D"/>
</svg>
