<svg width="34" height="34" viewBox="0 0 34 34" fill="none" xmlns="http://www.w3.org/2000/svg">
<path d="M24.0711 8.51415C24.4617 8.12363 25.0948 8.12363 25.4853 8.51415C25.8759 8.90468 25.8759 9.53784 25.4853 9.92837L9.929 25.4847C9.53847 25.8752 8.90531 25.8752 8.51478 25.4847C8.12426 25.0942 8.12426 24.461 8.51478 24.0705L24.0711 8.51415Z" fill="#95BB54"/>
<path d="M25.4854 24.0703C25.8759 24.4608 25.8759 25.094 25.4854 25.4845C25.0949 25.875 24.4617 25.875 24.0712 25.4845L8.51486 9.92816C8.12434 9.53764 8.12434 8.90447 8.51486 8.51395C8.90538 8.12342 9.53855 8.12342 9.92907 8.51395L25.4854 24.0703Z" fill="#95BB54"/>
</svg>
