<svg width="36" height="36" viewBox="0 0 36 36" fill="none" xmlns="http://www.w3.org/2000/svg">
<path d="M22.0606 7.82863C23.0653 7.96851 24.0493 8.21697 25.0216 8.51109C26.7188 9.02564 28.3204 9.74046 29.8266 10.6678C29.9315 10.7318 30.0713 10.7724 30.1948 10.7724C31.964 10.7796 33.7325 10.7771 35.5002 10.7785C35.6427 10.7785 35.7844 10.7933 35.9265 10.8012C35.9265 10.8353 35.9316 10.8497 35.9257 10.8576C35.8432 10.9828 35.7595 11.1061 35.6766 11.2309C35.0765 12.137 34.5638 13.0848 34.261 14.1326C34.2281 14.2451 34.2212 14.3393 34.2986 14.4497C35.8735 16.6762 36.3761 19.1205 35.7179 21.7554C35.1408 24.0664 33.7953 25.8682 31.7507 27.1439C30.2894 28.0561 28.675 28.4905 26.9504 28.4999C26.2258 28.5042 25.5048 28.4082 24.7969 28.2277C23.0723 27.7872 21.5938 26.9408 20.3754 25.6589C20.2147 25.4906 20.0635 25.3148 19.8922 25.1246C19.2479 26.0699 18.6138 26.9997 17.9644 27.954C17.3176 27.0026 16.6923 26.0818 16.0685 25.1645C16.0254 25.1868 16.013 25.1893 16.0046 25.1972C15.9903 25.2087 15.9783 25.2227 15.967 25.2361C14.4932 26.9494 12.6393 27.9997 10.3807 28.351C9.12424 28.547 7.87987 28.4765 6.65961 28.1453C4.93021 27.6775 3.4605 26.7793 2.27311 25.454C1.11275 24.1581 0.391043 22.6536 0.120037 20.9432C-0.19005 19.3467 0.187606 17.8074 0.281837 17.4338C0.555035 16.3479 1.0313 15.3508 1.68508 14.4339C1.7311 14.3688 1.74717 14.2538 1.72526 14.1761C1.45863 13.2135 0.999164 12.338 0.461169 11.4995C0.32457 11.2862 0.160944 11.0888 0.00973527 10.8842C0.00973527 10.8609 0.00973527 10.8368 0.00973527 10.8131C0.04005 10.8166 0.0699994 10.8224 0.0995837 10.8224C1.9097 10.8231 3.71945 10.8238 5.52957 10.8202C5.60846 10.8202 5.69612 10.7882 5.76332 10.7458C7.03508 9.94254 8.39011 9.3061 9.81381 8.81061C10.8405 8.45392 11.8887 8.17562 12.9578 7.97174C13.9929 7.7747 15.0334 7.63591 16.0849 7.56759C18.6485 7.37342 20.6975 7.64058 22.0606 7.82863ZM19.7914 19.5977C19.7914 23.5108 23.0164 26.7078 26.977 26.6927C30.9527 26.6786 34.1631 23.5716 34.1602 19.6153C34.1572 15.5381 30.7978 12.4732 26.8229 12.5526C22.8988 12.6328 19.8272 15.7467 19.7914 19.5977ZM9.01284 12.5257C5.14643 12.4926 1.77529 15.6694 1.84286 19.716C1.90568 23.4896 5.06499 26.6887 9.09319 26.6546C13.0319 26.6215 16.1978 23.4551 16.2051 19.6207C16.2113 15.6812 13.0067 12.5257 9.01284 12.5257ZM9.36931 10.6797C11.5534 10.8109 13.472 11.5602 15.0929 13.0115C16.7106 14.4598 17.6584 16.2666 18.0028 18.3913C18.3571 16.2918 19.28 14.5019 20.8674 13.0679C22.4572 11.6325 24.3503 10.8792 26.4986 10.7199C23.9492 9.60418 21.2611 9.13027 18.494 9.07777C15.3493 9.01701 12.2905 9.4733 9.36931 10.6797Z" fill="#00A680"/>
<path d="M26.962 15.133C29.4219 15.129 31.4142 17.08 31.4142 19.4992C31.4142 21.9277 29.4558 23.805 27.1453 23.8917C24.5649 23.9891 22.5002 21.9651 22.501 19.51C22.5032 17.0268 24.5825 15.092 26.962 15.133ZM29.8634 19.51C29.8623 17.9315 28.5661 16.6485 26.9737 16.6485C25.363 16.6485 24.0518 17.9247 24.0452 19.4985C24.0394 21.0655 25.3571 22.3693 26.9529 22.3736C28.5511 22.3797 29.8642 21.0856 29.8634 19.51Z" fill="#00A680"/>
<path d="M8.91792 15.133C11.3763 15.1305 13.3716 17.0851 13.3654 19.5039C13.3585 21.9522 11.3982 23.7885 9.12829 23.8903C6.53766 24.0068 4.44741 21.9738 4.45216 19.5053C4.45727 17.0045 6.55081 15.0913 8.91792 15.133ZM11.8161 19.5003C11.8113 17.9121 10.5067 16.6461 8.8781 16.6489C7.30722 16.6518 5.9909 17.957 5.99455 19.5093C5.99857 21.0795 7.31343 22.3707 8.91353 22.3751C10.5038 22.3787 11.8201 21.0749 11.8161 19.5003Z" fill="#00A680"/>
<path d="M26.9644 18.0571C27.7797 18.0564 28.448 18.7148 28.4404 19.5127C28.4323 20.3123 27.7753 20.9603 26.9736 20.9606C26.1481 20.9606 25.4845 20.3185 25.4863 19.5227C25.4878 18.6972 26.1324 18.0578 26.9644 18.0571Z" fill="#00A680"/>
<path d="M8.91059 18.0444C9.73821 18.0437 10.4033 18.6945 10.4066 19.5068C10.4099 20.3122 9.73858 20.9735 8.91497 20.9753C8.07163 20.9771 7.42115 20.3356 7.42188 19.501C7.42188 18.6816 8.0709 18.0455 8.91059 18.0444Z" fill="#00A680"/>
</svg>
