<svg width="36" height="36" viewBox="0 0 36 36" fill="none" xmlns="http://www.w3.org/2000/svg">
<path fill-rule="evenodd" clip-rule="evenodd" d="M24.8398 15.6812C24.119 13.5677 22.4323 11.881 20.3188 11.1602C19.5987 10.9147 18.8291 10.7812 18.0312 10.7812C14.0312 10.7812 10.8438 14.0312 10.8438 17.9688C10.8438 21.9688 14.0312 25.1562 18.0312 25.1562C21.9688 25.1562 25.2188 21.9688 25.2188 17.9688C25.2188 17.1709 25.0853 16.4013 24.8398 15.6812ZM25.8631 12.1731C26.1791 12.0985 26.4596 11.936 26.678 11.7125C26.9745 11.4089 27.1562 10.9928 27.1562 10.5312C27.1562 10.5061 27.1557 10.4811 27.1546 10.4563C27.1541 10.4442 27.1535 10.4322 27.1527 10.4202C27.0997 9.58992 26.4563 8.93 25.6336 8.85156C25.6158 8.84986 25.5979 8.84843 25.5798 8.84728C25.5431 8.84494 25.5061 8.84375 25.4688 8.84375C25.0072 8.84375 24.5911 9.02555 24.2875 9.32201C24.064 9.54037 23.9015 9.82093 23.8269 10.1369C23.797 10.2633 23.7812 10.3953 23.7812 10.5312C23.7812 11.4688 24.5312 12.2188 25.4688 12.2188C25.6047 12.2188 25.7367 12.203 25.8631 12.1731ZM23.6417 6.60556C23.643 6.60566 23.6442 6.60575 23.6455 6.60585C24.3101 6.65794 24.9352 6.73662 25.4688 6.85387C25.7724 6.9206 26.0464 6.99982 26.2812 7.09375C26.8802 7.3144 27.4155 7.67814 27.8632 8.13684C28.3031 8.58764 28.6584 9.13016 28.9062 9.71875C29.0002 9.95357 29.0794 10.2276 29.1461 10.5312C29.2634 11.0648 29.3421 11.6899 29.3941 12.3545C29.3942 12.3558 29.3943 12.357 29.3944 12.3583C29.4319 12.8374 29.4556 13.3369 29.4699 13.8375C29.5013 14.9312 29.4882 16.0298 29.4775 16.9307C29.4729 17.3188 29.4688 17.6702 29.4688 17.9688C29.4688 18.2786 29.473 18.6407 29.4776 19.0385C29.4933 20.3788 29.5137 22.124 29.3929 23.6416C29.3928 23.6429 29.3927 23.6441 29.3926 23.6454C29.3105 24.6735 29.1636 25.5969 28.9062 26.2188C28.685 26.8509 28.3198 27.4032 27.8593 27.8593C27.848 27.8706 27.8366 27.8818 27.8251 27.8929C27.382 28.3229 26.8534 28.6654 26.2812 28.9062C25.6338 29.1652 24.6883 29.3124 23.6455 29.3941C23.6442 29.3942 23.643 29.3943 23.6417 29.3944C22.1161 29.5138 20.3826 29.4932 19.0693 29.4775C18.6812 29.4729 18.3298 29.4688 18.0312 29.4688C17.7214 29.4688 17.3593 29.473 16.9615 29.4776C15.6212 29.4933 13.876 29.5137 12.3584 29.3929C12.3571 29.3928 12.3559 29.3927 12.3546 29.3926C11.3265 29.3105 10.4031 29.1636 9.78125 28.9062C9.17198 28.6625 8.63694 28.3149 8.19063 27.8778C8.16759 27.8552 8.14479 27.8324 8.12223 27.8094C7.68511 27.3631 7.33746 26.828 7.09375 26.2188C6.83645 25.5969 6.68949 24.6735 6.60744 23.6454C6.60734 23.6441 6.60724 23.6429 6.60714 23.6416C6.4863 22.124 6.5067 20.3788 6.52237 19.0385C6.52702 18.6407 6.53125 18.2786 6.53125 17.9688C6.53125 17.6702 6.52707 17.3188 6.52246 16.9307C6.50685 15.6174 6.48624 13.8839 6.60556 12.3583C6.60566 12.357 6.60575 12.3558 6.60585 12.3545C6.68759 11.3117 6.83478 10.3662 7.09375 9.71875C7.33669 9.14176 7.68292 8.62379 8.11811 8.18635C8.12945 8.17495 8.14085 8.1636 8.15231 8.15231C8.60621 7.70521 9.15444 7.34447 9.78125 7.09375C10.4031 6.83645 11.3265 6.68949 12.3546 6.60744C12.3559 6.60734 12.3571 6.60724 12.3584 6.60714C13.876 6.4863 15.6212 6.5067 16.9615 6.52237C17.3593 6.52702 17.7214 6.53125 18.0312 6.53125C18.3298 6.53125 18.6812 6.52707 19.0693 6.52246C19.9702 6.51175 21.0688 6.49869 22.1625 6.53006C22.6631 6.54442 23.1626 6.56809 23.6417 6.60556ZM31.9062 12.2188C31.8381 10.9924 31.6586 9.84033 31.2462 8.78276C31.2407 8.76866 31.2352 8.75457 31.2296 8.7405C30.8858 7.8739 30.3837 7.07125 29.6562 6.34375C28.9169 5.60444 28.1 5.098 27.2172 4.75378C27.1957 4.74538 27.1741 4.73708 27.1525 4.72888C26.1127 4.33415 24.9826 4.16049 23.7812 4.09375C22.6302 4.03153 20.3333 4.00028 18.0312 4C15.7084 3.99972 13.3802 4.03097 12.2188 4.09375C11.0049 4.16119 9.88201 4.33776 8.84025 4.74125C8.83093 4.74486 8.82161 4.74849 8.81231 4.75213C7.9336 5.09638 7.11272 5.60326 6.34375 6.34375C5.61625 7.07125 5.11424 7.8739 4.7704 8.7405C4.76482 8.75457 4.75928 8.76866 4.75378 8.78276C4.34141 9.84033 4.16188 10.9924 4.09375 12.2188C4.03153 13.3698 4.00028 15.6667 4 17.9688C3.99972 20.2916 4.03097 22.6198 4.09375 23.7812C4.16119 24.9951 4.33776 26.118 4.74125 27.1597C4.74486 27.1691 4.74849 27.1784 4.75213 27.1877C5.09638 28.0664 5.60326 28.8873 6.34375 29.6562C7.11272 30.3967 7.9336 30.9036 8.81231 31.2479C8.82161 31.2515 8.83093 31.2551 8.84025 31.2588C9.88201 31.6622 11.0049 31.8388 12.2188 31.9062C13.3802 31.969 15.7084 32.0003 18.0312 32C20.3333 31.9997 22.6302 31.9685 23.7812 31.9062C25.0076 31.8381 26.1597 31.6586 27.2172 31.2462C27.2313 31.2407 27.2454 31.2352 27.2595 31.2296C28.1261 30.8858 28.9288 30.3837 29.6562 29.6562C30.3967 28.8873 30.9036 28.0664 31.2479 27.1877C31.265 27.1439 31.2818 27.1 31.2981 27.0559C31.6738 26.0435 31.841 24.9549 31.9062 23.7812C31.969 22.6198 32.0003 20.2916 32 17.9688C31.9997 15.6667 31.9685 13.3698 31.9062 12.2188ZM13.3438 17.9688C13.3438 20.5938 15.4688 22.6562 18.0312 22.6562C20.5938 22.6562 22.6562 20.5938 22.6562 17.9688C22.6562 15.4062 20.5938 13.3438 18.0312 13.3438C15.4062 13.3438 13.3438 15.4062 13.3438 17.9688Z" fill="url(#paint0_linear)"/>
<defs>
<linearGradient id="paint0_linear" x1="4" y1="4" x2="32.946" y2="5.01475" gradientUnits="userSpaceOnUse">
<stop stop-color="#FEDA75"/>
<stop offset="0.286458" stop-color="#FA7E1E"/>
<stop offset="0.53125" stop-color="#D62976"/>
<stop offset="0.765625" stop-color="#962FBF"/>
<stop offset="1" stop-color="#4F5BD5"/>
</linearGradient>
</defs>
</svg>
