<svg width="42" height="42" viewBox="0 0 42 42" fill="none" xmlns="http://www.w3.org/2000/svg">
<g filter="url(#filter0_d)">
<circle cx="21" cy="19" r="18" fill="white"/>
</g>
<path d="M24 11H18C15.239 11 13 13.239 13 16V22C13 24.761 15.239 27 18 27H24C26.761 27 29 24.761 29 22V16C29 13.239 26.761 11 24 11ZM27.5 22C27.5 23.93 25.93 25.5 24 25.5H18C16.07 25.5 14.5 23.93 14.5 22V16C14.5 14.07 16.07 12.5 18 12.5H24C25.93 12.5 27.5 14.07 27.5 16V22Z" fill="url(#paint0_linear)"/>
<path d="M21 15C18.791 15 17 16.791 17 19C17 21.209 18.791 23 21 23C23.209 23 25 21.209 25 19C25 16.791 23.209 15 21 15ZM21 21.5C19.622 21.5 18.5 20.378 18.5 19C18.5 17.621 19.622 16.5 21 16.5C22.378 16.5 23.5 17.621 23.5 19C23.5 20.378 22.378 21.5 21 21.5Z" fill="url(#paint1_linear)"/>
<path d="M25.2996 15.233C25.594 15.233 25.8326 14.9944 25.8326 14.7C25.8326 14.4056 25.594 14.167 25.2996 14.167C25.0052 14.167 24.7666 14.4056 24.7666 14.7C24.7666 14.9944 25.0052 15.233 25.2996 15.233Z" fill="url(#paint2_linear)"/>
<defs>
<filter id="filter0_d" x="0" y="0" width="42" height="42" filterUnits="userSpaceOnUse" color-interpolation-filters="sRGB">
<feFlood flood-opacity="0" result="BackgroundImageFix"/>
<feColorMatrix in="SourceAlpha" type="matrix" values="0 0 0 0 0 0 0 0 0 0 0 0 0 0 0 0 0 0 127 0"/>
<feOffset dy="2"/>
<feGaussianBlur stdDeviation="1.5"/>
<feColorMatrix type="matrix" values="0 0 0 0 0 0 0 0 0 0 0 0 0 0 0 0 0 0 0.06 0"/>
<feBlend mode="normal" in2="BackgroundImageFix" result="effect1_dropShadow"/>
<feBlend mode="normal" in="SourceGraphic" in2="effect1_dropShadow" result="shape"/>
</filter>
<linearGradient id="paint0_linear" x1="14.4646" y1="25.5355" x2="27.5353" y2="12.4645" gradientUnits="userSpaceOnUse">
<stop stop-color="#FFC107"/>
<stop offset="0.507" stop-color="#F44336"/>
<stop offset="0.99" stop-color="#9C27B0"/>
</linearGradient>
<linearGradient id="paint1_linear" x1="18.1716" y1="21.8283" x2="23.8283" y2="16.1716" gradientUnits="userSpaceOnUse">
<stop stop-color="#FFC107"/>
<stop offset="0.507" stop-color="#F44336"/>
<stop offset="0.99" stop-color="#9C27B0"/>
</linearGradient>
<linearGradient id="paint2_linear" x1="24.9228" y1="15.0769" x2="25.6764" y2="14.3231" gradientUnits="userSpaceOnUse">
<stop stop-color="#FFC107"/>
<stop offset="0.507" stop-color="#F44336"/>
<stop offset="0.99" stop-color="#9C27B0"/>
</linearGradient>
</defs>
</svg>
