<svg width="24" height="24" viewBox="0 0 24 24" fill="none" xmlns="http://www.w3.org/2000/svg">
<g clip-path="url(#clip0)">
<path d="M18.2472 15.8768C17.463 15.1026 16.4841 15.1026 15.705 15.8768C15.1106 16.4661 14.5163 17.0555 13.9319 17.6548C13.7721 17.8196 13.6373 17.8546 13.4425 17.7447C13.0579 17.5349 12.6484 17.3651 12.2788 17.1354C10.5557 16.0516 9.1123 14.6581 7.83372 13.0899C7.19942 12.3107 6.63505 11.4767 6.24049 10.5377C6.16057 10.3479 6.17556 10.223 6.33039 10.0682C6.92473 9.49385 7.50408 8.90451 8.08843 8.31516C8.90253 7.49607 8.90253 6.53714 8.08344 5.71305C7.61896 5.24357 7.15447 4.78408 6.68999 4.3146C6.21052 3.83514 5.73605 3.35067 5.25158 2.8762C4.46745 2.11205 3.48854 2.11205 2.70941 2.8812C2.11007 3.47054 1.53571 4.07487 0.926385 4.65423C0.362011 5.18863 0.0773273 5.84291 0.0173938 6.60706C-0.0775008 7.85068 0.227161 9.02437 0.656684 10.1681C1.53571 12.5355 2.87422 14.6381 4.49742 16.566C6.68999 19.1731 9.30708 21.2358 12.3687 22.7242C13.7472 23.3934 15.1756 23.9078 16.7288 23.9928C17.7977 24.0527 18.7266 23.783 19.4708 22.9489C19.9802 22.3795 20.5546 21.8601 21.094 21.3157C21.8931 20.5066 21.8981 19.5277 21.104 18.7286C20.155 17.7747 19.2011 16.8257 18.2472 15.8768Z" fill="#95BB54"/>
<path d="M17.2919 11.8965L19.1349 11.5819C18.8452 9.88878 18.0461 8.35548 16.8324 7.13683C15.5489 5.85326 13.9257 5.04416 12.1376 4.79443L11.8779 6.64738C13.2614 6.84216 14.52 7.46647 15.5139 8.46036C16.4529 9.39932 17.0672 10.588 17.2919 11.8965Z" fill="#95BB54"/>
<path d="M20.1741 3.8852C18.0465 1.75756 15.3545 0.414052 12.3828 -0.000488281L12.123 1.85245C14.6902 2.21206 17.0176 3.37576 18.8556 5.20873C20.5986 6.95179 21.7424 9.15435 22.1569 11.5767L23.9999 11.262C23.5154 8.45512 22.1919 5.90795 20.1741 3.8852Z" fill="#95BB54"/>
</g>
<defs>
<clipPath id="clip0">
<rect width="24" height="24" fill="white"/>
</clipPath>
</defs>
</svg>
