<svg width="16" height="16" viewBox="0 0 16 16" fill="none" xmlns="http://www.w3.org/2000/svg">
<path fill-rule="evenodd" clip-rule="evenodd" d="M3.64645 3.64645C3.84171 3.45118 4.15829 3.45118 4.35355 3.64645L8.25 7.54289L12.1464 3.64645C12.3417 3.45118 12.6583 3.45118 12.8536 3.64645C13.0488 3.84171 13.0488 4.15829 12.8536 4.35355L8.95711 8.25L12.8536 12.1464C13.0488 12.3417 13.0488 12.6583 12.8536 12.8536C12.6583 13.0488 12.3417 13.0488 12.1464 12.8536L8.25 8.95711L4.35355 12.8536C4.15829 13.0488 3.84171 13.0488 3.64645 12.8536C3.45118 12.6583 3.45118 12.3417 3.64645 12.1464L7.54289 8.25L3.64645 4.35355C3.45118 4.15829 3.45118 3.84171 3.64645 3.64645Z" fill="#333333"/>
</svg>
