<svg width="25" height="24" viewBox="0 0 25 24" fill="none" xmlns="http://www.w3.org/2000/svg">
<path d="M6.40244 7.39998L1.82927 5.24413L0 9.77141C0.609756 10.7056 1.82927 12.7465 1.82927 13.4364C1.82927 14.2987 4.57317 17.5325 4.87805 18.826C5.12195 19.8608 6.60569 21.5567 7.31707 22.2753L10.6707 24L13.7195 22.2753L17.0732 22.9221L18.5976 20.9818L21.6463 22.9221V19.9039L23.4756 17.5325L25 14.7299L23.4756 9.77141L25 5.24413C24.187 3.8069 22.378 0.803088 21.6463 0.285685C20.9146 -0.231718 20.122 0.0701004 19.8171 0.285685L21.6463 3.30387V7.39998L15.2439 8.4779L10.6707 9.77141L6.40244 7.39998Z" fill="#DFBCCD"/>
</svg>
