<svg width="28" height="24" viewBox="0 0 28 24" fill="none" xmlns="http://www.w3.org/2000/svg">
<path d="M0 14.3531V1.78947H16.5394C17.1073 1.78947 17.6659 1.64455 18.1622 1.36842C18.3063 1.26316 18.6595 1.05263 18.9189 1.05263C18.9982 1.05263 19.0863 1.05919 19.1745 1.0693C19.5032 1.10698 19.8403 1.08919 20.1456 0.961798L20.169 0.952053C20.3429 0.879475 20.5295 0.842105 20.7179 0.842105H20.9201C21.1619 0.842105 21.3943 0.936527 21.5676 1.10526L21.6212 1.15746C21.7601 1.29273 21.9463 1.36842 22.1402 1.36842C22.4192 1.36842 22.6762 1.5273 22.8036 1.77544C22.8779 1.92019 22.998 2.0385 23.1443 2.10972L23.1795 2.12685C23.5354 2.30012 23.9634 2.21116 24.2208 1.91042L24.2686 1.85457C24.3057 1.81126 24.3388 1.76474 24.3677 1.71557L24.7568 1.05263C24.9464 0.621752 25.4092 0.379688 25.8713 0.469674L26.0457 0.503642C26.1232 0.518723 26.2019 0.526316 26.2808 0.526316H26.9973C27.0875 0.526316 27.1759 0.50153 27.2529 0.454669C27.5805 0.255315 28 0.491124 28 0.874603V1.73498C28 1.90851 27.9537 2.0789 27.8659 2.22856L27.6845 2.53752C27.6068 2.67007 27.5425 2.8101 27.4927 2.9555L27.3236 3.44954C27.1988 3.81401 27.1351 4.19659 27.1351 4.58182V4.61124C27.1351 5.10979 27.0244 5.60212 26.8108 6.05263C26.5973 6.50314 26.4865 6.99547 26.4865 7.49403V8.306C26.4865 8.52157 26.4509 8.73566 26.381 8.93961L26.2595 9.29451C26.1965 9.47879 26.0734 9.63659 25.91 9.74264C25.6627 9.90314 25.5135 10.1779 25.5135 10.4727V10.5263C25.5135 10.9885 25.2893 11.4219 24.9122 11.689L24.3243 12.1053L23.6268 12.5807C23.3761 12.7515 23.1785 12.9893 23.0562 13.267L23.0249 13.3381C22.955 13.4969 22.9189 13.6686 22.9189 13.8421C22.9189 14.0156 22.8828 14.1873 22.8129 14.3461L22.5946 14.8421L22.0493 15.8282C21.9089 16.0821 21.8013 16.3527 21.7292 16.6337L21.6699 16.8647C21.6378 16.9895 21.6216 17.1178 21.6216 17.2466V17.2632C21.6216 17.667 21.4584 18.0536 21.1692 18.3353C21.0394 18.4616 20.9337 18.6104 20.8571 18.7744L20.4324 19.6842L20.276 20.1412C20.1642 20.4677 20.0763 20.8019 20.013 21.1411L19.9155 21.6632C19.8998 21.7472 19.8919 21.8325 19.8919 21.9179V22.1559C19.8919 23.033 19.0392 23.3684 18.1622 23.3684C18.0958 23.3684 17.932 23.2962 17.7329 23.1933C17.0782 22.855 16.5789 22.2852 16.2423 21.6297L16.2138 21.5742C16.1434 21.4372 16.0831 21.2953 16.0332 21.1495L15.7627 20.3594C15.7063 20.1947 15.5963 20.0538 15.4504 19.959C15.1929 19.7919 14.8636 19.7974 14.5878 19.9324C14.3945 20.0269 14.1911 20.1053 14.0541 20.1053H12.973H12.7078C12.5272 20.1053 12.3496 20.1514 12.1918 20.2392L12.0213 20.334C11.8064 20.4536 11.545 20.4536 11.3301 20.334L11.2412 20.2846C11.0458 20.1759 10.8044 20.1945 10.628 20.3319C10.4732 20.4525 10.2664 20.4827 10.0835 20.4115L9.4626 20.1696C9.35269 20.1268 9.24744 20.0729 9.1485 20.0087L9.08611 19.9682C8.79879 19.7817 8.56117 19.528 8.39375 19.2292C8.14017 18.7765 7.72877 18.4331 7.23808 18.2645L6.59141 18.0422C6.30632 17.9443 6.03141 17.8099 5.77855 17.6457C5.18673 17.2616 4.48936 17.0526 3.78378 17.0526H3.34079C3.1078 17.0526 2.91892 16.8638 2.91892 16.6308C2.91892 16.4987 2.85705 16.3742 2.75174 16.2944L2.33831 15.9814C2.08372 15.7886 1.77312 15.6842 1.45376 15.6842H1.33116C1.16589 15.6842 1.00206 15.6534 0.848055 15.5935C0.336727 15.3943 0 14.9018 0 14.3531Z" fill="#CEDD79"/>
</svg>
