<svg width="23" height="24" viewBox="0 0 23 24" fill="none" xmlns="http://www.w3.org/2000/svg">
<path d="M23 19.686V1.19008H22.1154L21.6391 1.38843L21.503 0.694215L21.0266 0.297521L20.142 0L18.9852 0.14876L18.3728 0.446281L17.0799 1.09091L16.1953 1.8843L16.3994 2.47934L16.8077 2.92562H16.1953L15.9231 2.72727L15.1065 2.28099L14.8343 2.82645L15.5148 3.27273L15.1065 3.3719L15.4467 3.66942L15.1065 3.86777L14.7663 3.22314L14.2899 2.6281L13.3373 3.3719L13.1331 3.86777L13.4053 4.31405L13.3373 4.56198L12.5888 4.95868V5.50413L11.6361 6.14876L10.6834 6.29752L9.86686 6.59504L9.0503 6.44628L8.36982 6.89256L7.48521 6.99174L6.12426 7.23967L5.30769 7.1405L4.21894 7.73554L3.67456 8.18182L2.65385 8.38017L2.31361 8.77686L2.24556 9.12397L1.76923 9.22314L1.56509 8.38017L1.1568 9.02479V9.86777L1.36095 10.314L0.884615 10.6612L0.748521 11.4545L1.1568 11.8017V12.2975L1.56509 12.6446C1.6785 12.8595 1.87811 13.3289 1.76923 13.4876C1.66035 13.6463 1.72387 13.719 1.76923 13.7355L1.1568 13.8347L0.612426 13.2893L0 12.6446C0.0680473 12.8926 0.231361 13.4083 0.340237 13.4876C0.449112 13.5669 0.92998 13.9835 1.1568 14.1818L1.76923 14.9752V15.6694L2.38166 16.1157L2.78994 16.9091L3.06213 17.4545L3.33432 18.7438L4.42308 20.281H4.15089L3.94675 20.8264L4.15089 21.4215V21.8182L3.7426 22.2149H3.06213V22.8595C3.22091 22.9587 3.62012 23.1471 3.94675 23.1074C4.27337 23.0678 4.53649 23.3884 4.62722 23.5537C5.01282 23.7025 5.8929 24 6.3284 24H7.6213C7.73471 23.8678 7.97515 23.5934 8.02959 23.5537C8.08402 23.514 9.09566 23.3388 9.59467 23.2562L9.45858 22.8595L10.071 22.5124L10.6834 22.6612L11.7722 22.4132L13.4734 22.5124H15.4467L16.1272 21.8182L16.6035 21.124L17.8965 20.6777L18.8491 20.281L19.9379 20.6777L21.9112 20.281L23 19.686Z" fill="#E9CA8B"/>
</svg>
