<svg width="18" height="24" viewBox="0 0 18 24" fill="none" xmlns="http://www.w3.org/2000/svg">
<path d="M0 19.6953V7.42998L0.725977 7.6088C0.860861 7.64202 1.00053 7.57595 1.0604 7.4506C1.10185 7.36382 1.18324 7.30291 1.27818 7.28762L1.7637 7.20943C1.82474 7.1996 1.88721 7.21388 1.93791 7.24927C2.06768 7.33983 2.0747 7.52942 1.95198 7.62934L1.72578 7.81352C1.7019 7.83296 1.68005 7.85475 1.66055 7.87857L1.60339 7.94838C1.45712 8.12703 1.45712 8.38403 1.60339 8.56267C1.65995 8.63175 1.73448 8.68387 1.81877 8.71328L1.93768 8.75478C2.10686 8.81381 2.28947 8.82283 2.46364 8.78075L2.51171 8.76914C2.78012 8.7043 3.01432 8.54088 3.16781 8.31134L3.25136 8.18639C3.29931 8.11468 3.34092 8.03893 3.37572 7.96001L3.5018 7.67402C3.60804 7.43307 3.69532 7.1842 3.76286 6.92967L3.89845 6.41867C3.92805 6.30711 3.97211 6.1999 4.0295 6.09976C4.19147 5.81716 4.24362 5.48479 4.17599 5.16616L4.10428 4.82835C4.07198 4.67621 4.0557 4.5211 4.0557 4.36557V3.42015L3.98129 2.75803C3.95667 2.53894 4.0141 2.3185 4.1425 2.13929C4.23326 2.01261 4.28922 1.86435 4.30481 1.7093L4.37481 1.01312C4.38711 0.890798 4.43522 0.774816 4.5131 0.679692L4.53407 0.654079C4.79612 0.334032 5.29554 0.367888 5.512 0.720374C5.55461 0.78977 5.58269 0.867098 5.59453 0.947669L5.6368 1.23527C5.67149 1.47131 5.74776 1.69933 5.86206 1.90874L5.93254 2.03785C6.06983 2.28937 6.16489 2.56173 6.21393 2.84405L6.22059 2.88241C6.24185 3.0048 6.25254 3.1288 6.25254 3.25303V3.74094C6.25254 3.91504 6.31157 4.08399 6.42 4.2202L6.65744 4.51847C6.74938 4.63397 6.91035 4.66797 7.04114 4.59951L7.17817 4.52778C7.37087 4.42692 7.60369 4.44174 7.78204 4.56621C7.81377 4.58836 7.84321 4.6136 7.86994 4.64158L8.02856 4.80763C8.2625 5.05253 8.39304 5.37818 8.39304 5.71686C8.39304 5.83627 8.40929 5.95512 8.44134 6.07015L8.70088 7.00168C8.75765 7.20544 8.86379 7.39206 9.00989 7.54501L9.22896 7.77434C9.40898 7.96279 9.4755 8.23261 9.4037 8.48315C9.36892 8.60453 9.36605 8.73283 9.39538 8.85564L9.51963 9.37592L9.57592 9.70004C9.61292 9.91309 9.70196 10.1137 9.83512 10.2841L9.94165 10.4204C10.069 10.5834 10.2513 10.6945 10.4545 10.7332C10.6511 10.7706 10.8284 10.876 10.9552 11.0309L11.0296 11.1218C11.0743 11.1764 11.1239 11.2269 11.1777 11.2727L11.9007 11.8876C11.9574 11.9359 12.0402 11.9375 12.0987 11.8915C12.1673 11.8377 12.2667 11.8503 12.3197 11.9196L12.6067 12.2952C12.6455 12.3459 12.6416 12.4173 12.5975 12.4635C12.5469 12.5164 12.5502 12.6006 12.6046 12.6495L12.8531 12.8725C12.8838 12.9 12.9106 12.9316 12.9327 12.9664L13.2374 13.4447L13.2965 13.5685C13.3688 13.7199 13.4063 13.8856 13.4063 14.0535V14.4656C13.4063 14.5288 13.4337 14.589 13.4813 14.6305C13.603 14.7366 13.7937 14.679 13.8362 14.5232L13.857 14.4472C13.902 14.3293 14.0638 14.3167 14.1266 14.4262L14.1294 14.4311C14.1355 14.4418 14.1429 14.4517 14.1514 14.4606L14.313 14.6297C14.3738 14.6934 14.4731 14.7005 14.5424 14.6461C14.6033 14.5983 14.6886 14.5973 14.7506 14.6436L14.884 14.7434C14.9821 14.8168 15.0399 14.9321 15.0399 15.0546V15.5901C15.0399 15.8406 15.1274 16.1572 15.3779 16.1572C15.4501 16.1572 15.4612 16.2246 15.4473 16.3054C15.4241 16.4401 15.4167 16.5821 15.4821 16.7021L15.534 16.7971C15.5766 16.8752 15.6586 16.9238 15.7476 16.9238C15.8001 16.9238 15.8512 16.9408 15.8933 16.9723L16.2228 17.2187C16.5559 17.4899 16.8191 17.8371 16.9901 18.2311L17.0114 18.2801L17.0411 18.3298C17.1489 18.5103 17.4143 18.498 17.5049 18.3083L17.5116 18.2944C17.5161 18.2849 17.5195 18.2749 17.5217 18.2646C17.5503 18.1294 17.7406 18.1221 17.7796 18.2547L17.8373 18.4511C17.8496 18.493 17.8467 18.5379 17.8291 18.5778L17.6564 18.9694C17.5658 19.175 17.5277 19.3998 17.5455 19.6237L17.6167 20.5184C17.6262 20.6377 17.6239 20.7576 17.6097 20.8765L17.6009 20.9499C17.5482 21.3916 17.6617 21.8503 17.969 22.172C18.0322 22.2381 17.9884 22.366 17.9307 22.4704C17.8869 22.5496 17.8186 22.6111 17.7444 22.6629C17.5973 22.7656 17.4222 22.8206 17.2427 22.8206H16.828C16.7635 22.8206 16.6999 22.8363 16.6427 22.8662C16.5538 22.9127 16.4857 22.991 16.4518 23.0855L16.3355 23.4103L16.2731 23.5736C16.2402 23.6595 16.1837 23.7344 16.11 23.7895C15.942 23.9152 15.7082 23.9221 15.5614 23.7723C15.4864 23.6958 15.4171 23.6105 15.3779 23.5283C15.2652 23.2924 15.0962 23.2924 15.0399 23.1744C15.015 23.1224 14.9661 23.1398 14.9178 23.179C14.8429 23.2399 14.7573 23.2924 14.6609 23.2924H14.6145C14.5624 23.2924 14.5126 23.2711 14.4766 23.2334C14.4406 23.1958 14.3908 23.1744 14.3387 23.1744H14.3053C14.2696 23.1744 14.2343 23.1815 14.2015 23.1953L14.1385 23.2217C14.0284 23.2678 13.9071 23.2805 13.7898 23.2581L13.6598 23.2334C13.4578 23.195 13.2488 23.2168 13.0591 23.2963L12.8433 23.3866C12.6201 23.4801 12.3804 23.5283 12.1383 23.5283H3.54874V19.6953H0Z" fill="#B4AFCD"/>
</svg>
