<svg width="24" height="24" viewBox="0 0 24 24" fill="none" xmlns="http://www.w3.org/2000/svg">
<path d="M11.9995 0C7.20677 0 3.30762 3.89916 3.30762 8.69184C3.30762 14.6397 11.086 23.3715 11.4172 23.7404C11.7282 24.0868 12.2713 24.0862 12.5818 23.7404C12.913 23.3715 20.6914 14.6397 20.6914 8.69184C20.6913 3.89916 16.7922 0 11.9995 0ZM11.9995 13.065C9.58816 13.065 7.62645 11.1032 7.62645 8.69184C7.62645 6.2805 9.58821 4.31878 11.9995 4.31878C14.4108 4.31878 16.3725 6.28055 16.3725 8.69189C16.3725 11.1032 14.4108 13.065 11.9995 13.065Z" fill="#95BB54"/>
</svg>
