<svg width="14" height="24" viewBox="0 0 14 24" fill="none" xmlns="http://www.w3.org/2000/svg">
<path d="M0 24V6.05538L0.666667 6.20308L1.18519 5.90769L0.518519 5.31692L0.962963 5.09538L1.18519 4.35692L1.62963 4.13538L2 3.98769L1.62963 3.17538V2.58462L2.2963 2.43692L2.51852 1.92H3.18519L4.14815 1.99385H4.59259L5.03704 1.69846V1.10769L4.14815 0.886154L4 0.369231L4.51852 0L5.48148 0.221538L5.92593 0.738462L7.33333 1.32923H8.51852L9.40741 1.69846L10.0741 1.32923L10.6667 0.886154L11.037 0.516923L11.7037 0V0.886154L11.4815 1.32923L11.8519 1.69846L12.2963 1.92L12.1481 2.43692L11.7037 2.88L11.4074 3.47077L10.8148 3.54462V3.91385L11.4815 3.98769H12L12.1481 4.35692L12.2963 4.8L12.4444 5.09538L11.9259 5.16923L11.4815 5.09538L11.3333 4.72615L11.037 4.35692L10.8148 4.72615L10.5185 5.31692L10.2963 5.76V6.20308C10.4938 6.32615 10.9185 6.63138 11.037 6.86769C11.1556 7.104 11.5309 6.96615 11.7037 6.86769L12 7.08923C12.0247 7.16308 12.0593 7.32554 12 7.38462C11.9407 7.44369 11.8765 7.60615 11.8519 7.68H12.1481L12.3704 7.53231L12.7407 7.23692L12.963 7.68L13.1111 7.97538L13.8519 8.12308L14 8.71385V24H0Z" fill="#FFF79D"/>
</svg>
