<svg width="24" height="24" viewBox="0 0 24 24" fill="none" xmlns="http://www.w3.org/2000/svg">
<path d="M24 23.2957V0H0V10.5205H3.18072H3.98886C4.4645 10.5205 4.92647 10.6797 5.3012 10.9726C5.67594 11.2655 6.13791 11.4247 6.61355 11.4247H6.65641C7.03212 11.4247 7.40188 11.5185 7.73211 11.6977L8.0239 11.8561C8.19954 11.9514 8.38966 12.0171 8.58665 12.0507L9.10101 12.1385C9.48752 12.2044 9.80051 12.4889 9.90293 12.8673C9.97982 13.1514 10.1773 13.3876 10.4433 13.5137L10.5761 13.5766C10.7829 13.6745 10.9608 13.8244 11.0924 14.0115L11.3619 14.3945C11.4332 14.4958 11.5236 14.5823 11.628 14.649C11.7767 14.7442 11.8961 14.8787 11.9728 15.0377L12.3919 15.9055C12.4683 16.0638 12.4023 16.254 12.2444 16.331C12.0512 16.4251 12.0044 16.6794 12.1514 16.8361L12.2085 16.8969C12.2301 16.9199 12.2542 16.94 12.2809 16.9568C12.5513 17.1274 13.0582 17.4247 13.2048 17.4247C13.2808 17.4247 13.4222 17.3449 13.5691 17.2444C13.8477 17.0538 14.0438 16.7693 14.1742 16.458C14.3581 16.019 14.6835 15.6553 15.0917 15.4104C15.5196 15.1536 15.95 14.8797 16 14.7945C16.0964 14.6301 16.2892 14.5479 16.2892 14.137C16.2892 13.8312 16.7895 13.5016 17.0921 13.3469C17.1324 13.3263 17.1613 13.2886 17.1691 13.2441L17.3198 12.3872C17.3333 12.3108 17.4458 12.3207 17.4458 12.3982C17.4458 12.4066 17.4475 12.415 17.4507 12.4227L17.8314 13.3318C17.8835 13.4561 17.8194 13.5986 17.6918 13.6421C17.5605 13.6869 17.4973 13.8358 17.5562 13.9614L17.7017 14.2717C17.7821 14.4431 17.7669 14.6441 17.6614 14.8015L17.5722 14.9347C17.4895 15.0581 17.3749 15.1569 17.2406 15.2205L17.1825 15.248C16.8136 15.4228 16.5783 15.7946 16.5783 16.2029V16.4094C16.5783 16.4827 16.5936 16.5552 16.6231 16.6223C16.7523 16.9161 16.5922 17.2563 16.2835 17.3441L16.1406 17.3847C16.0489 17.4107 15.9515 17.4092 15.8607 17.3801L15.7719 17.3517C15.5034 17.2658 15.2289 17.4662 15.2289 17.7482C15.2289 17.978 15.4153 18.1644 15.6451 18.1644H15.9222C15.9739 18.1644 16.0255 18.1586 16.0759 18.1471L16.7137 18.0021C17.1419 17.9047 17.4458 17.524 17.4458 17.0849V17.0294C17.4458 16.9646 17.4563 16.9002 17.4769 16.8387L17.533 16.6711C17.6609 16.2896 18.1618 16.2035 18.4096 16.5205L18.4855 16.6223C18.8331 17.088 18.8013 17.735 18.4096 18.1644L18.2231 18.35C18.0358 18.5363 18.0967 18.8529 18.3397 18.9565C18.3858 18.9762 18.4355 18.9863 18.4857 18.9863H18.6004C18.6658 18.9863 18.7309 18.9791 18.7952 18.9673C19.0703 18.9169 19.4978 18.8696 19.5663 18.9863C19.5885 19.0242 19.6273 19.0631 19.6744 19.1005C19.899 19.2789 20.1633 19.4034 20.3909 19.5781L20.7292 19.8378C20.9154 19.9806 21.0668 20.1637 21.1721 20.3733L21.4654 20.9568C21.5423 21.1099 21.5288 21.293 21.4302 21.4331C21.3487 21.549 21.3244 21.6956 21.3643 21.8315L21.5082 22.3223C21.5625 22.5076 21.6514 22.6809 21.7703 22.8329L21.8428 22.9257C21.9313 23.0389 22.031 23.1429 22.1403 23.2361L22.8387 23.8316C22.9661 23.9403 23.1282 24 23.2957 24C23.6847 24 24 23.6847 24 23.2957Z" fill="#DFBCCD"/>
</svg>
