<svg width="24" height="24" viewBox="0 0 24 24" fill="none" xmlns="http://www.w3.org/2000/svg">
<g clip-path="url(#clip0)">
<path d="M21.8695 5.86853C21.6735 3.95274 21.3614 2.46109 20.8675 1.87478C18.8313 -0.53594 4.56764 -0.71236 2.94816 1.87478C2.55201 2.50863 2.27418 3.99499 2.08772 5.8717C1.48609 5.94248 1.01758 6.44903 1.01758 7.06914V9.41595C1.01758 9.93782 1.34823 10.3778 1.80988 10.5495C1.70055 14.2458 1.78928 18.1023 1.95303 20.0202C1.95303 21.5007 2.94764 21.2551 2.94764 21.2551H3.87991V22.8535C3.87991 23.4873 4.5333 24.0002 5.33829 24.0002C6.14433 24.0002 6.79771 23.4873 6.79771 22.8535V21.2551H17.6439V22.8535C17.6439 23.4873 18.2967 24.0002 19.1028 24.0002C19.9077 24.0002 20.5611 23.4873 20.5611 22.8535V21.2551H20.8675C20.8675 21.2551 22.038 21.4157 22.113 20.7185C22.113 18.8058 22.2334 14.567 22.1341 10.5659C22.6248 10.4121 22.9829 9.96 22.9829 9.41595V7.06914C22.9835 6.43424 22.4922 5.91924 21.8695 5.86853ZM6.43167 2.21864H17.384V3.87562H6.43167V2.21864ZM6.58802 19.3678C5.7281 19.3678 5.0314 18.6706 5.0314 17.8107C5.0314 16.9513 5.7281 16.2546 6.58802 16.2546C7.44793 16.2546 8.14516 16.9513 8.14516 17.8107C8.14516 18.6706 7.44846 19.3678 6.58802 19.3678ZM17.3253 19.3678C16.466 19.3678 15.7677 18.6706 15.7677 17.8107C15.7677 16.9513 16.4654 16.2546 17.3253 16.2546C18.1853 16.2546 18.882 16.9513 18.882 17.8107C18.8825 18.6706 18.1853 19.3678 17.3253 19.3678ZM19.3045 12.554H4.51112V4.79469H19.3045V12.554Z" fill="#95BB54"/>
</g>
<defs>
<clipPath id="clip0">
<rect width="24" height="24" fill="white"/>
</clipPath>
</defs>
</svg>
