<svg width="164" height="28" fill="none" xmlns="http://www.w3.org/2000/svg"><path d="M2.987 3.394v9.783h14.898l-.927 2.112H2.988v9.45h16.824V27H.43V1.133h19.382v2.26H2.987zM43.98 16.475c0 3.46-1 6.14-3.002 8.042-2.026 1.902-4.682 2.854-7.968 2.854-3.236 0-5.904-.952-8.004-2.854-2.05-1.853-3.076-4.534-3.076-8.042V1.133h2.594l.037 15.305c0 2.89.778 5.04 2.335 6.449 1.507 1.457 3.545 2.186 6.114 2.186 2.545 0 4.583-.729 6.115-2.186 1.507-1.434 2.26-3.583 2.26-6.449V1.133h2.595v15.342zM67.485 27h-3.187l-8.412-11.229-6.448.037V27H46.88V15.845h-1.593V13.66h1.593V1.133h9.376c3.187 0 5.485.556 6.893 1.668.717.568 1.26 1.309 1.63 2.223.396.914.594 1.927.594 3.039 0 2.001-.642 3.644-1.927 4.929-1.161 1.16-2.73 1.94-4.707 2.334L67.485 27zm-12.86-13.341c2.965 0 5.04-.519 6.227-1.557 1.21-1.062 1.816-2.408 1.816-4.04 0-3.137-2.15-4.706-6.449-4.706h-6.781V13.66h5.188zM84.39 27.37c-3.014 0-5.732-.569-8.153-1.705-2.421-1.161-4.323-2.755-5.707-4.78-1.359-2.051-2.038-4.349-2.038-6.894 0-2.52.68-4.78 2.038-6.781 1.359-2.026 3.249-3.607 5.67-4.744C78.621 1.331 81.351.762 84.39.762c3.064 0 5.806.569 8.227 1.705 2.421 1.112 4.311 2.68 5.67 4.707 1.359 2 2.038 4.274 2.038 6.818 0 2.57-.691 4.867-2.075 6.893-1.359 2.026-3.249 3.62-5.67 4.78-2.421 1.137-5.151 1.706-8.19 1.706zM71.271 13.992c.025 2.15.593 4.064 1.705 5.744 1.112 1.656 2.656 2.953 4.632 3.892 2.001.939 4.262 1.408 6.782 1.408 2.545 0 4.818-.47 6.819-1.408 2.026-.94 3.595-2.249 4.706-3.929 1.137-1.68 1.693-3.582 1.668-5.707-.025-2.1-.605-3.965-1.742-5.596-1.136-1.655-2.705-2.94-4.706-3.854-1.977-.938-4.225-1.408-6.745-1.408-2.52 0-4.768.47-6.745 1.408-1.976.914-3.532 2.2-4.669 3.854-1.112 1.631-1.68 3.496-1.705 5.596zm60.249-12.86V27h-2.668V6.877l-11.636 15.046h-.668l-11.71-15.046V27h-2.594V1.133h1.223l13.378 17.195L130.26 1.133h1.26zm2.563 0h2.595V27h-2.595V1.133zM163.207 27L141.861 1.133H138.6L159.946 27h3.261zm-.222-25.867h-3.224l-8.894 10.747h3.261l8.857-10.747zM138.378 27h3.187l9.191-10.97h-3.299L138.378 27z" fill="#333"/></svg>