<svg width="445" height="617" viewBox="0 0 445 617" fill="none" xmlns="http://www.w3.org/2000/svg">
<mask id="mask0" mask-type="alpha" maskUnits="userSpaceOnUse" x="0" y="0" width="445" height="617">
<rect width="445" height="617" rx="30" fill="#C4C4C4"/>
</mask>
<g mask="url(#mask0)">
<rect width="445" height="617" rx="30" fill="#FEF8E8"/>
<path d="M421 309.262C421 396.291 327.622 469 219.077 469C110.531 469 36 413.56 36 326.531C36 239.502 64.7621 156 173.307 156C281.853 156 421 222.234 421 309.262Z" fill="#FEF8E8"/>
<path opacity="0.1" d="M401 268.705C401 371.879 332.502 484 229.593 484C126.684 484 24 463.115 24 359.94C24 256.765 107.424 173.125 210.333 173.125C313.242 173.125 401 165.53 401 268.705Z" fill="#F4B713"/>
<path opacity="0.5" d="M202.84 400.003C188.87 400.04 174.905 400.357 160.957 401.807C155.702 402.354 150.552 403.556 145.281 404.043C134.754 405.012 124.417 406.82 113.857 407.651C105.353 408.321 96.8101 408.721 88.3285 409.57C80.3764 410.369 71.5716 410.185 63.6808 408.863C57.8407 407.885 51.9727 407.334 46.2273 405.769C39.8021 404.015 32.8196 402.758 26.1269 402.804C16.581 402.868 7.28583 402.877 -1.85328 405.976C-5.05754 407.064 -8.98624 408.849 -11.4215 411.135C-16.9941 416.36 -17.752 429.397 -12.1849 434.818C-2.81177 443.94 17.1995 447.516 30.3398 447.686C44.7394 447.869 58.7267 446.873 73.1487 446.286C86.5508 445.739 99.914 444.964 113.338 444.991C140.75 445.046 168.173 444.991 195.535 443.279C221.247 441.672 247.02 442.223 272.788 442.223C299.208 442.223 325.455 442.416 351.685 445.698C363.115 447.13 374.756 447.631 386.247 448.631C396.534 449.527 406.42 448.613 416.668 447.782C425.272 447.084 433.82 445.019 441.633 441.53C447.819 438.766 458.852 430.177 460.747 423.581C466.069 405.085 385.779 405.53 373.452 405.572C359.66 405.618 345.762 406.045 331.98 405.549C326.185 405.342 320.473 404.282 314.817 403.125C309.183 401.968 303.504 402.262 297.792 401.775C273.964 399.751 250.08 400.045 226.179 400.045C218.405 400.049 210.625 399.985 202.84 400.003Z" fill="#FFF1CB"/>
<path d="M66.4441 419.602C58.4529 420.113 51.9919 418.836 48.1664 417.815C44.7659 416.963 42.1305 415.942 40.6003 415.261C34.9894 412.878 22.1525 406.664 22.7476 400.79C23.2577 395.172 35.8396 392.959 37.3698 392.789C33.3742 392.619 26.7432 391.938 19.4321 388.192C18.0719 387.511 14.1614 385.469 10.5908 382.745C8.80557 381.383 7.10532 379.851 5.91515 378.233C5.32006 377.382 4.80998 376.531 4.55495 375.68C4.2149 374.829 4.12988 373.977 4.12988 372.956C4.2149 367.934 11.0159 364.274 19.6872 363.763C18.667 362.656 17.3068 360.954 16.0316 359.081C14.7564 357.208 13.3962 354.995 12.2061 352.697C11.951 352.101 11.2709 350.824 10.5058 349.122C9.74071 347.505 8.89058 345.547 8.04046 343.504C6.34021 339.418 4.29991 334.396 6.42522 331.247C7.70041 329.374 10.0808 328.523 12.4611 328.267C14.8415 328.012 17.3068 328.267 18.667 328.523C20.7073 328.863 22.7476 329.629 24.5329 330.651C26.3182 331.587 27.8484 332.779 29.2086 333.885C31.844 336.184 33.4592 338.397 34.3943 339.674C37.4548 343.845 38.0499 345.121 38.73 347.59C39.7501 342.312 41.8755 338.482 44.2558 336.099C46.6362 333.715 49.4416 332.864 51.8219 333.119C52.587 333.204 53.3521 333.545 54.0322 333.885C54.6273 334.226 55.3924 334.907 56.0725 335.673C57.3477 337.12 58.5379 339.078 59.473 341.036C61.4283 344.951 62.5335 349.037 62.8735 350.058C65.764 360.358 63.7237 368.785 62.3635 372.871C64.0637 369.721 69.8446 359.251 75.1153 360.869C78.1758 361.805 80.3011 366.657 81.4913 372.19C82.7665 377.723 83.1915 384.192 83.1065 388.107C83.1065 390.321 82.9365 394.747 81.6613 400.109C79.791 407.855 76.8156 412.878 76.2205 413.899C74.9453 416.027 73.7552 417.644 72.735 418.836C71.1198 419.091 69.0795 419.432 66.4441 419.602Z" fill="#FFD154"/>
<path d="M77.6656 428.37C77.6656 428.37 76.9005 427.008 75.6253 424.539C75.0303 423.347 74.1801 421.815 73.33 420.113C72.3949 418.41 71.2897 416.623 70.0995 414.495C65.2538 406.323 58.3678 395.598 50.8867 384.958C43.4056 374.403 35.4144 363.848 29.0385 355.506C25.893 351.335 23.1726 347.675 21.0473 344.951C18.922 342.227 17.3068 340.44 16.7117 339.759" stroke="#FFDF8A" stroke-width="2.0192" stroke-miterlimit="10" stroke-linecap="round" stroke-linejoin="round"/>
<path d="M42.0452 372.956C44.2555 362.656 46.2108 352.356 48.1661 341.972" stroke="#FFDF8A" stroke-width="2.0192" stroke-miterlimit="10" stroke-linecap="round" stroke-linejoin="round"/>
<path d="M44.5108 376.616C34.3093 375.68 24.1078 374.999 13.9062 374.403" stroke="#FFDF8A" stroke-width="2.0192" stroke-miterlimit="10" stroke-linecap="round" stroke-linejoin="round"/>
<path d="M64.6587 404.961C67.4641 395.513 69.9295 385.724 72.2248 375.85" stroke="#FFDF8A" stroke-width="2.0192" stroke-miterlimit="10" stroke-linecap="round" stroke-linejoin="round"/>
<path d="M66.1889 408.196C55.3923 406.323 44.6808 405.046 34.0542 404.11" stroke="#FFDF8A" stroke-width="2.0192" stroke-miterlimit="10" stroke-linecap="round" stroke-linejoin="round"/>
<path d="M97.2186 428.965C96.8785 427.944 96.1134 427.178 95.6034 426.412C94.7532 425.39 94.0731 424.284 93.393 423.092C92.7129 421.985 92.1178 420.794 91.5228 419.772C90.2476 417.729 88.9724 415.857 87.6972 414.239C85.1468 411.005 82.5964 408.706 80.4711 407.345C77.1556 405.302 73.7551 404.195 70.7797 402.663C67.7192 401.131 65.1689 399.428 63.2986 395.768C62.7885 394.747 60.4932 390.405 62.1934 387.086C63.0436 385.383 64.4038 384.958 70.4396 382.319C77.7507 379.084 79.1959 378.233 79.451 376.786C79.791 374.999 78.1758 373.211 76.9856 371.849C74.1802 368.7 71.8849 369.296 69.3345 365.891C68.5694 364.869 67.2092 362.997 67.7193 361.209C68.2293 359.336 70.2696 359.507 70.6947 358.23C71.1198 356.953 69.5045 355.676 67.5492 353.889C65.5939 352.101 63.1286 349.718 61.8534 346.313C60.3232 342.312 60.2381 337.205 62.6185 335.503C64.2337 334.396 66.3591 334.907 68.4844 335.417C75.1153 337.035 77.2407 341.546 80.6412 340.44C80.8962 340.354 82.4264 339.844 82.9365 338.567C83.7016 336.354 80.3011 334.566 78.7709 329.799C78.6009 329.204 78.2608 328.097 78.0908 327.076C78.0058 326.054 78.0908 325.118 78.6859 324.352C79.366 323.5 80.3861 323.671 81.4063 323.841C82.4264 324.011 83.4466 324.096 84.2967 323.415C85.7419 322.139 84.7218 319.925 85.8269 316.01C85.9119 315.584 86.422 313.882 87.2721 312.265C88.1223 310.647 89.3124 309.03 91.0127 308.604C92.1178 308.349 93.478 308.689 94.7532 309.456C95.9434 310.222 97.1336 311.413 97.8137 312.775C99.684 316.265 98.7488 319.925 98.1537 323.33C98.0687 323.756 97.9837 324.181 97.8987 324.692C97.8137 325.288 97.8137 325.884 97.7287 326.48C97.6437 327.671 97.4736 328.863 97.4736 330.055C97.3886 332.523 97.5587 334.992 98.2388 337.545C98.6638 339.163 99.3439 340.78 100.789 341.631C103.34 343.078 105.805 341.035 108.185 341.801C109.885 342.312 111.501 344.1 112.436 346.228C113.456 348.356 113.881 350.824 113.286 352.867C112.521 355.591 110.396 356.953 107.845 358.57C105.295 360.273 102.489 362.316 100.534 366.572C100.194 367.423 98.1537 372.275 99.939 373.722C101.639 375.084 104.7 371.934 109.375 372.445C113.031 372.871 117.112 375.339 118.132 378.489C118.557 379.68 118.472 380.787 117.367 383C116.261 385.213 114.051 388.448 110.226 393.981C102.574 405.131 101.129 406.323 99.939 410.239C99.4289 411.941 99.0039 414.069 99.0039 416.623C99.0039 417.304 99.0039 417.985 99.0889 418.666C99.1739 419.347 99.2589 420.198 99.3439 420.794C99.5139 422.07 99.939 423.432 100.789 424.624C100.959 424.879 101.129 425.135 101.299 425.305C101.554 425.645 101.724 426.071 101.979 426.497C101.044 426.412 100.364 427.007 99.684 427.603C98.9188 428.454 98.1537 428.965 97.2186 428.965Z" fill="#FFDF8A"/>
<path d="M99.344 426.582C99.344 426.582 99.259 426.497 99.1739 426.241C99.0889 426.071 98.9189 425.816 98.7489 425.39C98.3238 424.624 97.8137 423.262 97.3887 421.475C96.9636 419.432 93.5631 401.897 92.2879 395.002C91.0127 388.192 89.9076 381.212 89.2275 375.339C88.5474 369.466 88.2923 364.699 88.3773 362.23C88.5474 359.507 88.8024 355.336 89.2275 350.824C89.6525 346.228 92.543 318.989 92.543 318.989" stroke="#F4B713" stroke-width="1.5352" stroke-miterlimit="10" stroke-linecap="round" stroke-linejoin="round"/>
<path d="M88.5474 362.23C93.7331 357.634 99.0889 353.378 104.445 349.292" stroke="#F4B713" stroke-width="1.5352" stroke-miterlimit="10" stroke-linecap="round" stroke-linejoin="round"/>
<path d="M88.8024 358.23C82.3414 353.974 75.9655 349.292 69.6746 344.611" stroke="#F4B713" stroke-width="1.5352" stroke-miterlimit="10" stroke-linecap="round" stroke-linejoin="round"/>
<path d="M93.3081 399.854C98.2388 394.066 103.085 388.363 108.015 382.83" stroke="#F4B713" stroke-width="1.5352" stroke-miterlimit="10" stroke-linecap="round" stroke-linejoin="round"/>
<path d="M92.7128 396.534C85.6567 394.491 78.6857 392.363 71.6296 390.065" stroke="#285680" stroke-width="1.5352" stroke-miterlimit="10" stroke-linecap="round" stroke-linejoin="round"/>
<path d="M88.8024 369.891C84.3817 367.848 80.0461 365.72 75.7104 363.507" stroke="#F4B713" stroke-width="1.5352" stroke-miterlimit="10" stroke-linecap="round" stroke-linejoin="round"/>
<path d="M89.6525 422.326C84.8918 422.666 81.0663 421.9 78.8559 421.304C76.8156 420.793 75.2854 420.198 74.3503 419.772C71.0348 418.325 63.4687 414.665 63.8087 411.175C64.1488 407.855 71.5449 406.578 72.48 406.408C70.0996 406.323 66.1891 405.897 61.8534 403.684C61.0883 403.259 58.708 402.067 56.5826 400.45C55.5625 399.683 54.5423 398.747 53.8622 397.726C53.5222 397.215 53.1821 396.704 53.0121 396.194C52.8421 395.683 52.7571 395.172 52.7571 394.576C52.8421 391.597 56.8377 389.469 61.9384 389.128C61.3433 388.448 60.4932 387.426 59.7281 386.319C58.963 385.213 58.1979 383.936 57.5178 382.489C57.3478 382.149 56.9227 381.382 56.4976 380.361C56.0726 379.425 55.5625 378.233 55.0524 377.041C54.0323 374.573 52.8421 371.679 54.1173 369.806C54.8824 368.699 56.2426 368.189 57.6878 368.019C59.133 367.848 60.5782 368.019 61.3433 368.189C62.5335 368.359 63.7237 368.87 64.8289 369.466C65.849 370.061 66.7841 370.742 67.5493 371.423C69.0795 372.785 70.0996 374.147 70.6097 374.828C72.395 377.297 72.735 378.063 73.1601 379.51C73.7552 376.36 75.0304 374.147 76.3906 372.7C77.8358 371.253 79.451 370.742 80.8962 370.998C81.4063 371.083 81.8314 371.253 82.1714 371.423C82.5115 371.679 82.9365 372.019 83.3616 372.445C84.1267 373.296 84.8068 374.488 85.4019 375.594C86.5071 377.893 87.1872 380.361 87.3572 380.957C89.0574 387 87.8673 392.023 87.0171 394.491C88.0373 392.618 91.4378 386.405 94.5833 387.426C96.3685 388.022 97.6437 390.831 98.4088 394.151C99.1739 397.47 99.429 401.216 99.344 403.599C99.344 404.876 99.2589 407.515 98.4938 410.664C97.3887 415.261 95.6034 418.24 95.2634 418.836C94.4982 420.112 93.8181 421.049 93.2231 421.73C92.3729 422.07 91.1828 422.24 89.6525 422.326Z" fill="#F4B713"/>
<path d="M96.2834 427.518C96.2834 427.518 95.8583 426.667 95.0932 425.22C94.7532 424.454 94.2431 423.602 93.733 422.581C93.223 421.559 92.5428 420.453 91.7777 419.261C88.8873 414.409 84.8067 408.11 80.3861 401.811C75.9654 395.512 71.2047 389.299 67.4642 384.362C65.5939 381.893 63.9786 379.765 62.7035 378.148C61.4283 376.531 60.4931 375.509 60.1531 375.083" stroke="#FFDE84" stroke-width="1.0949" stroke-miterlimit="10" stroke-linecap="round" stroke-linejoin="round"/>
<path d="M75.2004 394.746C76.4756 388.703 77.6658 382.489 78.856 376.36" stroke="#FFDE84" stroke-width="1.0949" stroke-miterlimit="10" stroke-linecap="round" stroke-linejoin="round"/>
<path d="M76.6458 396.874C70.6099 396.279 64.574 395.938 58.5381 395.512" stroke="#FFDE84" stroke-width="1.0949" stroke-miterlimit="10" stroke-linecap="round" stroke-linejoin="round"/>
<path d="M88.5474 413.729C90.2476 408.111 91.6928 402.322 92.968 396.534" stroke="#FFDE84" stroke-width="1.0949" stroke-miterlimit="10" stroke-linecap="round" stroke-linejoin="round"/>
<path d="M89.4827 415.601C83.1068 414.494 76.7309 413.728 70.4399 413.133" stroke="#FFDE84" stroke-width="1.0949" stroke-miterlimit="10" stroke-linecap="round" stroke-linejoin="round"/>
<path d="M165.94 361.72H117.908C116.547 361.72 115.527 360.613 115.527 359.336V354.059C115.527 352.697 116.633 351.676 117.908 351.676H165.94C167.3 351.676 168.32 352.782 168.32 354.059V359.336C168.405 360.698 167.3 361.72 165.94 361.72Z" fill="#D38309"/>
<path d="M102.86 319.585C102.86 310.988 103.115 302.476 102.775 293.964C102.52 288.26 102.605 282.557 103.456 276.939C103.796 274.471 105.496 263.15 110.342 265.278C111.277 265.703 111.702 267.065 111.872 267.661C111.617 284.941 111.447 302.305 111.192 319.585C111.192 321.883 109.661 323.671 107.791 323.671H106.176C104.391 323.671 102.86 321.883 102.86 319.585Z" fill="#D38309"/>
<path d="M102.605 290.473V344.78C102.605 349.122 104.306 353.378 107.451 356.442C110.512 359.506 114.762 361.294 119.098 361.294H159.649" stroke="#735213" stroke-width="2.9231" stroke-miterlimit="10" stroke-linecap="round" stroke-linejoin="round"/>
<path d="M140.691 361.72H136.61V420.708H140.691V361.72Z" fill="#735213" stroke="#735213" stroke-width="1.9487" stroke-miterlimit="10" stroke-linecap="round" stroke-linejoin="round"/>
<path d="M144.006 388.703H133.295V408.876H144.006V388.703Z" fill="#735213" stroke="#735213" stroke-width="1.9487" stroke-miterlimit="10" stroke-linecap="round" stroke-linejoin="round"/>
<path d="M174.611 422.751C169.85 419.602 156.503 411.6 137.886 411.856C120.118 412.026 107.536 419.517 102.69 422.751C102.69 421.645 102.69 420.538 102.69 419.431C107.791 416.197 120.373 409.132 137.886 408.962C156.333 408.791 169.595 416.282 174.611 419.431C174.611 420.538 174.611 421.645 174.611 422.751Z" fill="#735213" stroke="#735213" stroke-width="1.9487" stroke-miterlimit="10" stroke-linecap="round" stroke-linejoin="round"/>
<path d="M107.196 422.751C107.196 420.198 105.156 418.155 102.606 418.155C100.055 418.155 98.0149 420.198 98.0149 422.751C98.0149 425.305 100.055 427.348 102.606 427.348C105.156 427.348 107.196 425.305 107.196 422.751Z" fill="#735213" stroke="#735213" stroke-width="1.9487" stroke-miterlimit="10" stroke-linecap="round" stroke-linejoin="round"/>
<path d="M179.202 422.751C179.202 420.198 177.161 418.155 174.611 418.155C172.061 418.155 170.02 420.198 170.02 422.751C170.02 425.305 172.061 427.348 174.611 427.348C177.161 427.348 179.202 425.305 179.202 422.751Z" fill="#735213" stroke="#735213" stroke-width="1.9487" stroke-miterlimit="10" stroke-linecap="round" stroke-linejoin="round"/>
<path d="M142.986 422.751C142.986 420.368 141.031 418.41 138.651 418.41C136.27 418.41 134.315 420.368 134.315 422.751C134.315 425.135 136.27 427.092 138.651 427.092C141.031 427.092 142.986 425.135 142.986 422.751Z" fill="#735213" stroke="#735213" stroke-width="1.9487" stroke-miterlimit="10" stroke-linecap="round" stroke-linejoin="round"/>
<path d="M344.381 299.837C342.936 298.901 341.15 297.879 338.94 297.028C336.73 296.177 334.094 295.496 331.034 294.9C325.933 293.964 318.537 293.453 318.537 292.346C318.537 291.836 320.322 291.24 322.873 290.814C325.423 290.389 328.824 290.218 331.799 290.559C335.285 290.984 338.345 292.176 340.64 293.623C343.021 295.155 344.551 297.028 345.486 298.56L344.381 299.837Z" fill="#FFDF8A"/>
<path d="M344.891 299.156C342.086 296.092 338.005 294.219 333.839 293.198C329.589 292.261 325.168 292.176 320.833 292.261" stroke="#FAAE26" stroke-width="0.4108" stroke-miterlimit="10" stroke-linecap="round" stroke-linejoin="round"/>
<path d="M326.528 292.347L325.168 291.24" stroke="#FAAE26" stroke-width="0.4108" stroke-miterlimit="10" stroke-linecap="round" stroke-linejoin="round"/>
<path d="M328.059 292.432C327.634 292.857 327.293 293.283 326.868 293.708" stroke="#FAAE26" stroke-width="0.4108" stroke-miterlimit="10" stroke-linecap="round" stroke-linejoin="round"/>
<path d="M331.374 292.772C331.119 292.346 330.864 291.836 330.609 291.41" stroke="#FAAE26" stroke-width="0.4108" stroke-miterlimit="10" stroke-linecap="round" stroke-linejoin="round"/>
<path d="M333.754 293.198C333.159 293.538 332.564 293.964 332.054 294.304" stroke="#FAAE26" stroke-width="0.4108" stroke-miterlimit="10" stroke-linecap="round" stroke-linejoin="round"/>
<path d="M336.39 293.964C336.135 293.368 335.795 292.687 335.455 292.091" stroke="#FAAE26" stroke-width="0.4108" stroke-miterlimit="10" stroke-linecap="round" stroke-linejoin="round"/>
<path d="M340.301 295.666C339.79 295.751 339.28 295.921 338.77 296.006" stroke="#FAAE26" stroke-width="0.4108" stroke-miterlimit="10" stroke-linecap="round" stroke-linejoin="round"/>
<path d="M347.186 300.348C345.911 299.496 344.636 298.305 343.446 297.028C342.256 295.751 341.151 294.304 339.96 292.857C338.855 291.41 337.665 290.133 336.305 288.856C334.945 287.58 333.329 286.303 331.629 285.026C328.654 282.898 324.828 280.685 321.683 279.067C318.537 277.365 316.157 276.088 316.327 275.322C316.497 274.641 319.302 274.556 323.043 275.237C324.913 275.577 327.039 276.088 329.164 276.939C331.289 277.706 333.414 278.727 335.285 279.919C337.41 281.281 339.365 282.898 340.896 284.685C342.426 286.388 343.616 288.346 344.466 290.048C345.316 291.75 345.996 293.368 346.676 294.815C347.356 296.262 347.952 297.539 348.717 298.645L347.186 300.348Z" fill="#FFDF8A"/>
<path d="M347.867 299.326C345.486 296.943 343.956 294.134 342.341 291.58C341.916 290.899 341.491 290.303 341.066 289.622C340.64 289.027 340.13 288.431 339.62 287.835C338.6 286.728 337.495 285.622 336.305 284.6C333.924 282.643 331.204 280.94 328.399 279.578C325.593 278.216 322.618 277.11 319.557 276.173" stroke="#FAAE26" stroke-width="0.5901" stroke-miterlimit="10" stroke-linecap="round" stroke-linejoin="round"/>
<path d="M327.293 279.068C326.953 278.302 326.528 277.621 326.103 276.94" stroke="#FAAE26" stroke-width="0.5901" stroke-miterlimit="10" stroke-linecap="round" stroke-linejoin="round"/>
<path d="M329.334 280.089C328.569 280.43 327.804 280.77 327.124 281.196" stroke="#FAAE26" stroke-width="0.5901" stroke-miterlimit="10" stroke-linecap="round" stroke-linejoin="round"/>
<path d="M333.499 282.472C333.499 281.706 333.414 280.94 333.329 280.259" stroke="#FAAE26" stroke-width="0.5901" stroke-miterlimit="10" stroke-linecap="round" stroke-linejoin="round"/>
<path d="M336.305 284.6C335.37 284.685 334.35 284.856 333.415 284.941" stroke="#FAAE26" stroke-width="0.5901" stroke-miterlimit="10" stroke-linecap="round" stroke-linejoin="round"/>
<path d="M339.11 287.239C339.195 286.303 339.28 285.281 339.28 284.26" stroke="#FAAE26" stroke-width="0.5901" stroke-miterlimit="10" stroke-linecap="round" stroke-linejoin="round"/>
<path d="M342.766 292.261C342.086 292.006 341.32 291.836 340.64 291.58" stroke="#FAAE26" stroke-width="0.5901" stroke-miterlimit="10" stroke-linecap="round" stroke-linejoin="round"/>
<path d="M345.741 298.305C345.146 294.474 344.296 289.112 343.786 282.472C343.616 279.663 343.361 276.429 343.276 273.875C343.191 271.322 343.191 269.364 343.786 269.193C344.296 269.108 345.231 270.811 346.166 273.279C347.101 275.748 347.952 279.068 348.377 282.047C349.312 288.856 348.462 294.559 347.441 298.22L345.741 298.305Z" fill="#FFDF8A"/>
<path d="M346.591 298.22C346.931 289.367 346.251 280.345 344.296 271.492" stroke="#FAAE26" stroke-width="0.423" stroke-miterlimit="10" stroke-linecap="round" stroke-linejoin="round"/>
<path d="M345.401 277.365L346.251 275.833" stroke="#FAAE26" stroke-width="0.423" stroke-miterlimit="10" stroke-linecap="round" stroke-linejoin="round"/>
<path d="M345.656 278.897C345.146 278.557 344.636 278.302 344.126 278.046" stroke="#FAAE26" stroke-width="0.423" stroke-miterlimit="10" stroke-linecap="round" stroke-linejoin="round"/>
<path d="M346.081 282.387L347.271 281.281" stroke="#FAAE26" stroke-width="0.423" stroke-miterlimit="10" stroke-linecap="round" stroke-linejoin="round"/>
<path d="M346.336 284.856C345.826 284.43 345.231 283.92 344.721 283.494" stroke="#FAAE26" stroke-width="0.423" stroke-miterlimit="10" stroke-linecap="round" stroke-linejoin="round"/>
<path d="M346.506 287.665L347.952 286.133" stroke="#FAAE26" stroke-width="0.423" stroke-miterlimit="10" stroke-linecap="round" stroke-linejoin="round"/>
<path d="M346.676 292.091L345.656 290.899" stroke="#FAAE26" stroke-width="0.423" stroke-miterlimit="10" stroke-linecap="round" stroke-linejoin="round"/>
<path d="M347.697 299.497C347.867 295.496 348.547 289.708 350.757 283.068C352.542 277.535 355.773 270.385 356.793 270.811C357.813 271.151 356.623 278.727 355.178 284.515C353.477 291.155 351.182 296.432 349.397 299.922L347.697 299.497Z" fill="#FFDF8A"/>
<path d="M348.632 299.582C350.927 290.644 353.477 281.792 356.198 273.024" stroke="#FAAE26" stroke-width="0.4344" stroke-miterlimit="10" stroke-linecap="round" stroke-linejoin="round"/>
<path d="M354.412 278.812L355.858 277.791" stroke="#FAAE26" stroke-width="0.4344" stroke-miterlimit="10" stroke-linecap="round" stroke-linejoin="round"/>
<path d="M353.902 280.344L352.882 278.812" stroke="#FAAE26" stroke-width="0.4344" stroke-miterlimit="10" stroke-linecap="round" stroke-linejoin="round"/>
<path d="M352.967 283.749L354.497 283.153" stroke="#FAAE26" stroke-width="0.4344" stroke-miterlimit="10" stroke-linecap="round" stroke-linejoin="round"/>
<path d="M352.202 286.218L351.182 284.26" stroke="#FAAE26" stroke-width="0.4344" stroke-miterlimit="10" stroke-linecap="round" stroke-linejoin="round"/>
<path d="M351.437 288.942L353.392 288.005" stroke="#FAAE26" stroke-width="0.4344" stroke-miterlimit="10" stroke-linecap="round" stroke-linejoin="round"/>
<path d="M350.247 293.453L349.567 291.921" stroke="#FAAE26" stroke-width="0.4344" stroke-miterlimit="10" stroke-linecap="round" stroke-linejoin="round"/>
<path d="M344.126 302.305C345.146 300.262 347.186 298.134 349.567 296.347C352.032 294.559 355.008 292.857 358.578 291.75C360.023 291.325 361.724 290.899 363.339 290.644C364.954 290.388 366.569 290.303 367.844 290.303C369.205 290.303 370.31 290.133 371.16 290.048C372.01 289.963 372.605 289.793 372.775 290.048C372.945 290.303 372.605 290.899 371.84 291.495C371.075 292.176 369.8 292.772 368.44 293.283C367.079 293.793 365.634 294.219 364.274 294.644C362.829 295.155 361.384 295.666 360.023 296.177C356.963 297.368 354.157 298.56 351.607 299.667C349.142 300.773 347.101 301.88 345.486 303.157L344.126 302.305Z" fill="#3CA3A4"/>
<path d="M344.976 302.731C346.506 300.773 348.547 299.326 350.587 298.134C352.627 296.943 354.753 295.836 356.878 294.985C359.003 294.049 361.298 293.368 363.509 292.772C364.614 292.516 365.804 292.261 366.909 292.091C368.099 291.921 369.205 291.665 370.395 291.325" stroke="#148B7A" stroke-width="0.4427" stroke-miterlimit="10" stroke-linecap="round" stroke-linejoin="round"/>
<path d="M364.274 292.602C364.784 292.857 365.379 293.112 365.889 293.453" stroke="#148B7A" stroke-width="0.4427" stroke-miterlimit="10" stroke-linecap="round" stroke-linejoin="round"/>
<path d="M362.744 292.942C362.999 292.346 363.254 291.75 363.509 291.24" stroke="#148B7A" stroke-width="0.4427" stroke-miterlimit="10" stroke-linecap="round" stroke-linejoin="round"/>
<path d="M359.258 294.049C359.683 294.389 360.193 294.644 360.618 294.985" stroke="#148B7A" stroke-width="0.4427" stroke-miterlimit="10" stroke-linecap="round" stroke-linejoin="round"/>
<path d="M356.793 294.985C357.048 294.304 357.388 293.623 357.728 292.942" stroke="#148B7A" stroke-width="0.4427" stroke-miterlimit="10" stroke-linecap="round" stroke-linejoin="round"/>
<path d="M354.157 296.177C354.838 296.432 355.518 296.772 356.198 297.028" stroke="#148B7A" stroke-width="0.4427" stroke-miterlimit="10" stroke-linecap="round" stroke-linejoin="round"/>
<path d="M349.992 298.475C350.162 297.964 350.417 297.368 350.587 296.857" stroke="#148B7A" stroke-width="0.4427" stroke-miterlimit="10" stroke-linecap="round" stroke-linejoin="round"/>
<path d="M346.506 327.927H343.361C337.835 327.927 333.415 323.415 333.415 317.968V301.114C333.415 298.73 335.37 296.772 337.75 296.772H353.733C356.283 296.772 358.323 298.815 358.323 301.369V316.18C358.238 322.734 352.967 327.927 346.506 327.927Z" fill="#FAAE26"/>
<path d="M337.41 319.755V300.348C337.41 298.39 339.025 296.772 340.981 296.772H336.985C335.03 296.772 333.415 298.39 333.415 300.348V319.755C333.415 324.266 337.07 327.927 341.576 327.927H345.571C341.066 327.927 337.41 324.266 337.41 319.755Z" fill="#D38309"/>
<path d="M358.833 301.369H332.224C331.204 301.369 330.354 300.518 330.354 299.496V297.539C330.354 296.517 331.204 295.666 332.224 295.666H358.833C359.853 295.666 360.703 296.517 360.703 297.539V299.496C360.703 300.518 359.853 301.369 358.833 301.369Z" fill="#FAAE26"/>
<path d="M416.302 328.182H149.532C147.577 328.182 145.962 329.799 145.962 331.757V334.14C145.962 336.098 147.577 337.715 149.532 337.715H416.302C418.257 337.715 419.872 336.098 419.872 334.14V331.757C419.957 329.799 418.342 328.182 416.302 328.182Z" fill="#EE5F43"/>
<path opacity="0.5" d="M416.302 335.672H149.532C147.577 335.672 145.962 334.055 145.962 332.097V334.225C145.962 336.183 147.577 337.801 149.532 337.801H416.302C418.257 337.801 419.872 336.183 419.872 334.225V332.097C419.957 334.055 418.342 335.672 416.302 335.672Z" fill="#D08B73"/>
<path d="M373.625 337.801L374.73 339.758C375.921 341.716 378.046 342.993 380.341 342.993H392.923L392.413 337.886H373.625V337.801Z" fill="#804537"/>
<path d="M392.923 342.908L401.424 427.263H404.995V337.801H392.413L392.923 342.908Z" fill="#804537"/>
<path d="M172.911 342.908H185.492C187.788 342.908 189.913 341.716 191.103 339.673L192.208 337.716H173.421L172.911 342.908Z" fill="#804537"/>
<path d="M160.754 337.801L160.669 427.348H164.409L173.421 337.801H160.754Z" fill="#804537"/>
<path d="M356.623 325.458H386.122L375.156 289.963H345.741L356.623 325.458Z" fill="#BEC6C4"/>
<path d="M354.157 325.459H383.657L372.69 289.963H343.276L354.157 325.459Z" fill="#EAEAEA"/>
<path d="M360.449 328.193H414.517V324.448H360.449V328.193Z" fill="#BEC6C4"/>
<path d="M356.394 328.193H387.509V324.448H356.394V328.193Z" fill="#EAEAEA"/>
<path d="M360.109 308.434C359.683 306.476 360.279 304.604 361.384 304.178C362.489 303.838 363.764 305.115 364.189 307.072C364.614 309.03 364.019 310.903 362.914 311.328C361.809 311.669 360.534 310.392 360.109 308.434Z" fill="#BEC6C4"/>
<path d="M317.347 427.433C317.262 426.412 317.432 425.305 317.602 424.284L317.772 423.517L318.282 421.56C318.707 420.028 319.132 418.495 319.557 417.048C320.408 414.41 321.343 411.686 322.278 408.792C324.148 403.259 326.188 397.3 328.569 390.916C330.949 384.617 333.584 377.893 336.73 370.913C338.26 367.423 339.875 363.848 341.661 360.188C342.511 358.4 343.446 356.527 344.381 354.655C345.316 352.782 346.336 350.824 347.356 348.952C350.842 342.482 354.838 335.843 359.003 329.459C363.084 323.075 367.249 317.031 370.99 311.584C371.5 310.903 371.925 310.222 372.435 309.541C372.945 308.86 373.455 308.179 373.88 307.583C374.901 306.306 375.836 305.2 376.771 304.178C378.641 302.05 380.341 300.263 381.872 298.73C384.932 295.751 387.142 293.708 388.758 294.219C389.523 294.474 390.118 295.411 390.458 296.858C390.798 298.305 390.883 300.348 390.628 302.646C390.373 304.944 389.948 307.668 389.353 310.307C389.098 311.584 387.652 318.308 387.567 318.649C386.037 325.373 383.657 332.694 381.021 340.014C378.386 347.334 375.411 354.57 372.52 361.124C372.095 362.06 370.395 365.806 369.97 366.827C369.12 368.7 368.185 370.572 367.334 372.445C365.549 376.105 363.679 379.68 361.809 383C357.983 389.81 354.072 396.023 349.992 401.727C345.996 407.43 341.916 412.452 338.005 416.963C336.05 419.261 334.095 421.304 332.224 423.262C331.289 424.198 330.439 425.22 329.674 426.156C329.249 426.667 328.824 427.093 328.484 427.603C328.144 428.114 327.889 428.625 327.719 429.221L317.347 427.433Z" fill="#FFD154"/>
<path d="M322.618 427.688C322.788 426.752 323.043 425.901 323.468 424.965C323.638 424.539 323.808 424.198 323.978 423.858L324.488 422.836C325.168 421.475 325.933 420.198 326.613 418.921L330.864 411.601C333.584 406.749 336.305 401.812 338.94 396.79C344.211 386.83 349.227 376.701 354.157 366.572C356.623 361.464 382.637 308.264 383.912 305.71" stroke="#FFDF8A" stroke-width="1.5352" stroke-miterlimit="10" stroke-linecap="round" stroke-linejoin="round"/>
<path d="M370.905 332.438C373.965 331.332 376.941 330.225 380.001 329.118" stroke="#FFDF8A" stroke-width="1.5352" stroke-miterlimit="10" stroke-linecap="round" stroke-linejoin="round"/>
<path d="M367.334 339.588L361.894 330.906" stroke="#FFDF8A" stroke-width="1.5352" stroke-miterlimit="10" stroke-linecap="round" stroke-linejoin="round"/>
<path d="M359.513 355.165L368.78 354.144" stroke="#FFDF8A" stroke-width="1.5352" stroke-miterlimit="10" stroke-linecap="round" stroke-linejoin="round"/>
<path d="M354.072 366.487L349.057 355.846" stroke="#FFDF8A" stroke-width="1.5352" stroke-miterlimit="10" stroke-linecap="round" stroke-linejoin="round"/>
<path d="M347.866 379.084L359.768 376.701" stroke="#285680" stroke-width="1.5352" stroke-miterlimit="10" stroke-linecap="round" stroke-linejoin="round"/>
<path d="M337.495 399.258L334.69 390.831" stroke="#285680" stroke-width="1.5352" stroke-miterlimit="10" stroke-linecap="round" stroke-linejoin="round"/>
<path d="M326.699 426.241C326.444 425.305 326.529 424.369 326.699 423.603C326.954 422.752 327.294 422.071 327.634 421.39C328.399 420.028 329.249 418.666 330.099 417.389C331.799 414.75 333.5 412.367 335.115 410.154C335.88 409.047 336.645 407.94 337.325 407.004C338.005 405.983 338.515 405.046 339.025 404.11C339.961 402.323 340.641 400.62 340.981 399.173C343.021 390.916 341.406 383.511 346.932 377.467C347.782 376.531 350.927 373.041 354.583 373.637C356.453 373.977 357.388 375.254 362.319 380.532C368.27 386.831 369.8 387.937 371.33 387.682C373.2 387.256 374.136 384.958 374.986 383.17C376.856 378.999 375.241 376.957 377.196 372.956C377.791 371.764 378.811 369.551 380.596 369.296C382.467 369.04 383.317 371.083 384.677 370.913C385.952 370.743 386.207 368.7 386.632 365.976C386.972 363.252 387.482 359.932 388.928 357.208C390.458 354.229 394.283 351.08 397.259 352.186C399.214 352.867 400.234 355.08 401.254 357.294C404.4 364.018 402.105 368.785 405.165 371.083C405.42 371.253 406.865 372.36 408.226 371.934C410.606 371.168 409.841 366.997 412.901 362.486C413.751 361.294 415.537 358.485 417.577 358.741C419.702 358.996 419.872 362.486 422.168 362.912C424.123 363.337 425.143 360.954 428.884 358.826C429.649 358.4 435.515 354.995 438.575 357.038C440.785 358.4 441.55 362.316 440.7 365.465C439.68 369.466 436.195 371.934 432.029 374.488C427.863 377.127 423.103 379.851 419.362 384.617C418.172 386.15 417.067 387.852 417.237 389.725C417.407 392.959 421.062 393.725 421.828 396.449C422.083 397.386 422.083 398.577 421.743 399.769C421.402 400.961 420.637 402.323 419.787 403.599C417.917 406.153 415.282 408.366 412.476 409.217C408.821 410.409 406.1 409.047 403.04 407.515C399.894 405.983 396.324 404.28 390.968 404.365C390.458 404.365 388.673 404.451 387.057 404.791C385.442 405.132 383.657 405.812 383.232 407.089C382.467 409.388 387.227 411.005 388.673 416.027C389.778 419.943 388.588 425.39 385.187 427.944C383.997 428.88 382.552 429.391 379.576 429.136C376.601 428.965 372.095 428.029 364.784 425.986C357.558 423.943 353.562 422.581 350.757 421.73C347.952 420.879 346.421 420.623 344.126 420.538C342.171 420.538 339.705 420.709 337.155 421.815C335.88 422.411 334.605 423.177 333.415 424.369C333.16 424.624 332.649 425.05 332.394 425.39C332.224 425.561 332.139 425.731 331.969 425.816C331.799 425.986 331.714 426.156 331.544 426.327C331.034 427.008 330.609 427.944 330.779 429.05C330.099 428.114 329.419 427.859 328.824 427.603C327.974 427.433 327.379 427.178 326.699 426.241Z" fill="#F4B713"/>
<path d="M328.909 426.752C328.909 426.752 328.994 426.582 329.079 426.156C329.249 425.816 329.504 425.305 330.014 424.709C330.269 424.454 330.524 424.113 330.864 423.858C331.204 423.517 331.629 423.177 332.054 422.751C332.819 422.07 333.755 421.219 334.775 420.453C336.9 418.836 339.706 417.218 343.021 415.431C346.421 413.729 349.992 411.771 353.733 409.813C361.129 405.897 368.78 401.641 375.241 397.981C381.617 394.321 386.972 391.427 389.778 390.235C392.583 389.129 396.749 387.341 401.34 385.128C405.93 382.915 410.946 380.106 415.452 377.297C419.957 374.488 424.038 371.764 427.013 369.721C429.989 367.678 431.859 366.401 431.859 366.401" stroke="#FFDE84" stroke-width="1.784" stroke-miterlimit="10" stroke-linecap="round" stroke-linejoin="round"/>
<path d="M389.693 390.32C396.664 393.3 403.805 396.194 411.371 398.407L389.693 390.32Z" fill="#F29C1F"/>
<path d="M389.693 390.32C396.664 393.3 403.805 396.194 411.371 398.407" stroke="#FFDE84" stroke-width="1.784" stroke-miterlimit="10" stroke-linecap="round" stroke-linejoin="round"/>
<path d="M393.773 388.618C394.709 380.106 395.304 371.679 394.794 363.593L393.773 388.618Z" fill="#F29C1F"/>
<path d="M393.773 388.618C394.709 380.106 395.304 371.679 394.794 363.593" stroke="#FFDE84" stroke-width="1.784" stroke-miterlimit="10" stroke-linecap="round" stroke-linejoin="round"/>
<path d="M352.967 410.239C360.618 413.473 368.355 416.623 376.346 419.432L352.967 410.239Z" fill="#F29C1F"/>
<path d="M352.967 410.239C360.618 413.473 368.355 416.623 376.346 419.432" stroke="#FFDE84" stroke-width="1.784" stroke-miterlimit="10" stroke-linecap="round" stroke-linejoin="round"/>
<path d="M356.283 408.451C356.113 400.365 355.858 392.363 355.433 384.362" stroke="#FFDE84" stroke-width="1.784" stroke-miterlimit="10" stroke-linecap="round" stroke-linejoin="round"/>
<path d="M382.127 394.151C382.212 388.788 382.297 383.511 382.297 378.148L382.127 394.151Z" fill="#F29C1F"/>
<path d="M382.127 394.151C382.212 388.788 382.297 383.511 382.297 378.148" stroke="#FFDE84" stroke-width="1.784" stroke-miterlimit="10" stroke-linecap="round" stroke-linejoin="round"/>
<path d="M312.927 428.71C309.186 428.88 300.09 428.88 290.398 423.518C280.197 417.9 275.266 409.558 273.481 406.238C275.181 407.43 277.986 409.302 281.557 411.26C288.868 415.261 292.949 416.027 298.559 418.751C302.215 420.453 307.316 423.432 312.927 428.71Z" fill="#FFD461"/>
<path d="M312.927 428.369C307.231 426.156 300.005 422.326 293.714 415.516C291.758 413.388 289.038 410.409 286.913 405.557C284.617 400.195 284.277 395.428 284.277 392.448C285.808 395.428 288.528 399.854 292.864 404.536C296.859 408.877 299.325 410.154 303.065 413.984C305.87 416.878 309.611 421.475 312.927 428.369Z" fill="#FFD461"/>
<path d="M312.927 427.944C309.951 425.56 303.235 419.517 299.495 409.132C295.584 398.066 297.454 388.618 298.304 384.958C301.96 392.193 305.701 400.875 308.761 411.005C310.631 416.963 311.906 422.666 312.927 427.944Z" fill="#FFD461"/>
<path d="M313.436 429.135C306.976 418.751 306.635 411.515 307.571 406.749C308.166 403.855 309.441 400.62 309.441 395.257C309.441 390.405 308.336 386.49 307.401 383.936C309.611 385.724 312.926 388.958 314.797 393.81C315.902 396.534 316.582 399.854 315.477 411.856C315.222 416.197 314.627 422.07 313.436 429.135Z" fill="#FFD461"/>
<path d="M313.521 428.795C313.011 418.581 314.627 410.749 315.987 405.812C317.772 399.514 319.557 396.705 321.003 394.832C324.403 390.406 328.569 388.192 331.119 387.001C329.589 389.129 327.293 392.534 325.508 397.215C322.958 403.855 323.383 407.6 321.598 413.473C320.577 417.219 318.367 422.666 313.521 428.795Z" fill="#FFD461"/>
<path d="M312.586 428.71C313.352 424.964 315.562 416.197 323.043 408.11C331.034 399.513 340.216 396.789 343.871 395.853C339.195 402.492 333.244 409.813 325.678 417.218C321.258 421.645 316.837 425.475 312.586 428.71Z" fill="#FFD461"/>
<path d="M311.226 428.71C313.522 425.475 319.558 417.985 330.269 413.388C340.896 408.877 350.247 409.728 354.243 410.324C341.066 414.495 333.585 419.091 329.079 422.837C327.039 424.539 321.598 429.306 314.457 429.136C313.097 429.136 311.906 428.88 311.226 428.71Z" fill="#FFD461"/>
<path d="M331.119 420.793C336.815 421.134 341.406 420.283 344.126 419.517C346.506 418.921 348.377 418.155 349.567 417.644C353.562 415.942 362.659 411.515 362.234 407.344C361.894 403.344 352.967 401.812 351.777 401.641C354.583 401.556 359.343 401.045 364.529 398.407C365.464 397.896 368.27 396.449 370.82 394.576C372.095 393.64 373.285 392.533 374.135 391.342C374.56 390.746 374.901 390.15 375.156 389.554C375.411 388.958 375.496 388.277 375.496 387.596C375.411 384.021 370.65 381.383 364.444 381.042C365.124 380.276 366.144 378.999 367.079 377.722C368.014 376.36 368.95 374.828 369.8 373.126C369.97 372.7 370.48 371.764 370.99 370.572C371.5 369.381 372.095 368.019 372.775 366.572C374.05 363.677 375.411 360.102 373.88 357.889C372.945 356.527 371.245 355.931 369.545 355.761C367.844 355.591 366.144 355.761 365.124 355.931C363.679 356.187 362.234 356.698 360.958 357.464C359.683 358.145 358.578 358.996 357.643 359.762C355.773 361.379 354.583 362.996 353.987 363.848C351.777 366.827 351.437 367.763 350.927 369.466C350.162 365.72 348.717 362.996 347.016 361.294C345.316 359.592 343.276 358.996 341.576 359.166C340.981 359.251 340.47 359.421 340.045 359.677C339.62 359.932 339.11 360.358 338.6 360.954C337.665 361.975 336.815 363.337 336.135 364.784C334.775 367.593 333.924 370.487 333.754 371.253C331.714 378.574 333.159 384.532 334.094 387.511C332.904 385.298 328.824 377.807 324.998 378.999C322.788 379.68 321.343 383.085 320.407 387.086C319.557 391.086 319.217 395.598 319.217 398.407C319.217 399.939 319.387 403.088 320.237 406.919C321.598 412.452 323.638 415.942 324.148 416.708C325.083 418.24 325.933 419.432 326.613 420.198C327.804 420.453 329.334 420.708 331.119 420.793Z" fill="#F4B713"/>
<path d="M323.128 427.007C323.128 427.007 323.638 425.986 324.573 424.283C324.998 423.432 325.593 422.326 326.188 421.134C326.868 419.942 327.633 418.58 328.483 417.133C331.884 411.345 336.815 403.684 342.17 396.108C347.526 388.533 353.222 381.042 357.728 375.169C360.023 372.189 361.893 369.636 363.424 367.678C364.954 365.72 366.059 364.443 366.484 363.933" stroke="#FFDE84" stroke-width="1.6688" stroke-miterlimit="10" stroke-linecap="round" stroke-linejoin="round"/>
<path d="M348.462 387.597C346.931 380.276 345.486 372.956 344.126 365.55" stroke="#FFDE84" stroke-width="1.6688" stroke-miterlimit="10" stroke-linecap="round" stroke-linejoin="round"/>
<path d="M346.761 390.15C354.072 389.469 361.298 388.958 368.524 388.533" stroke="#FFDE84" stroke-width="1.6688" stroke-miterlimit="10" stroke-linecap="round" stroke-linejoin="round"/>
<path d="M332.479 410.324C330.439 403.599 328.739 396.619 327.124 389.639" stroke="#FFDE84" stroke-width="1.6688" stroke-miterlimit="10" stroke-linecap="round" stroke-linejoin="round"/>
<path d="M331.289 412.707C338.94 411.345 346.591 410.494 354.157 409.813" stroke="#FFDE84" stroke-width="1.6688" stroke-miterlimit="10" stroke-linecap="round" stroke-linejoin="round"/>
<path d="M319.472 425.731C321.088 422.581 323.468 420.198 325.423 418.325C326.273 417.474 327.209 416.708 328.144 415.857C328.909 415.091 329.674 414.325 330.439 413.558C333.925 410.154 337.665 406.749 340.981 403.259C344.466 399.684 348.207 395.428 352.797 390.746C357.388 386.15 362.319 381.638 367.76 377.127C386.037 362.06 412.816 345.462 416.387 349.548C419.957 353.633 400.234 377.552 382.977 394.236C378.046 399.003 373.03 403.429 368.27 407.345C363.509 411.345 358.493 415.261 353.307 418.41C348.037 421.56 343.106 423.603 338.6 425.39C333.755 427.348 329.674 427.859 326.443 430.327L319.472 425.731Z" fill="#FFDF8A"/>
<path d="M323.468 427.688C325.423 425.22 327.804 423.688 329.844 422.496L333.5 420.283L335.71 418.836C339.62 416.367 343.361 413.814 346.931 411.09C350.502 408.281 353.903 405.216 357.303 402.067C360.704 398.918 364.104 395.768 367.59 392.704C381.362 380.276 395.389 368.189 409.416 356.017" stroke="#F4B713" stroke-width="1.5352" stroke-miterlimit="10" stroke-linecap="round" stroke-linejoin="round"/>
<path d="M390.968 372.02L398.874 372.445" stroke="#F4B713" stroke-width="1.5352" stroke-miterlimit="10" stroke-linecap="round" stroke-linejoin="round"/>
<path d="M386.037 376.361L384.677 368.019" stroke="#F4B713" stroke-width="1.5352" stroke-miterlimit="10" stroke-linecap="round" stroke-linejoin="round"/>
<path d="M375.326 385.809L382.722 387.852" stroke="#F4B713" stroke-width="1.5352" stroke-miterlimit="10" stroke-linecap="round" stroke-linejoin="round"/>
<path d="M367.589 392.704L367.164 383" stroke="#F4B713" stroke-width="1.5352" stroke-miterlimit="10" stroke-linecap="round" stroke-linejoin="round"/>
<path d="M359.088 400.45C362.404 401.046 365.634 401.556 368.865 402.237" stroke="#F4B713" stroke-width="1.5352" stroke-miterlimit="10" stroke-linecap="round" stroke-linejoin="round"/>
<path d="M345.146 412.452C345.401 410.068 345.571 407.685 345.741 405.387" stroke="#F4B713" stroke-width="1.5352" stroke-miterlimit="10" stroke-linecap="round" stroke-linejoin="round"/>
<path d="M341.831 197.947H317.177L303.745 206.715V169.517C303.745 162.026 310.631 155.983 319.217 155.983H341.831C350.417 155.983 357.303 162.026 357.303 169.517V184.413C357.303 191.904 350.417 197.947 341.831 197.947Z" fill="#F6C541"/>
<path d="M334.69 173.773C334.69 173.858 334.69 173.943 334.69 174.028C334.69 177.688 334.69 181.349 334.69 185.009C334.69 185.86 335.115 186.371 335.965 186.371C336.56 186.371 337.24 186.371 337.835 186.371C338.005 186.371 338.09 186.371 338.09 186.626C338.09 187.648 338.09 188.584 338.09 189.605C338.09 189.776 338.005 189.861 337.835 189.861C333.414 189.861 328.994 189.861 324.573 189.861C324.403 189.861 324.318 189.861 324.318 189.605C324.318 188.584 324.318 187.648 324.318 186.626C324.318 186.456 324.403 186.371 324.573 186.371C325.253 186.371 325.933 186.371 326.613 186.371C327.294 186.371 327.804 185.86 327.804 185.264C327.804 182.966 327.804 176.156 327.804 174.965C327.804 174.284 327.294 173.773 326.613 173.773C325.933 173.773 325.253 173.773 324.573 173.773C324.403 173.773 324.318 173.773 324.318 173.518C324.318 172.496 324.318 171.56 324.318 170.538C324.318 170.368 324.318 170.283 324.573 170.283C327.889 170.283 331.119 170.283 334.435 170.283C334.605 170.283 334.69 170.368 334.69 170.538C334.69 171.645 334.69 172.751 334.69 173.773Z" fill="#FEFEFE"/>
<path d="M331.204 167.985C329.249 167.985 327.804 166.452 327.804 164.495C327.804 162.537 329.334 161.09 331.289 161.09C333.245 161.09 334.69 162.622 334.69 164.58C334.69 166.538 333.16 167.985 331.204 167.985Z" fill="#FEFEFE"/>
<path d="M104.221 179.136H128.874L142.306 187.903V150.79C142.306 143.3 135.42 137.256 126.834 137.256H104.221C95.6345 137.256 88.7485 143.3 88.7485 150.79V165.686C88.7485 173.092 95.6345 179.136 104.221 179.136Z" fill="#F6C541"/>
<path d="M123.859 163.388C122.754 163.388 121.818 163.814 121.053 164.495L111.192 158.707C111.277 158.366 111.277 158.026 111.277 157.685C111.277 157.345 111.192 157.004 111.192 156.749L121.053 151.046C121.818 151.727 122.754 152.152 123.859 152.152C126.154 152.152 127.939 150.28 127.939 148.067C127.939 145.853 126.069 143.981 123.859 143.981C121.648 143.981 119.778 145.853 119.778 148.067C119.778 148.407 119.863 148.747 119.863 149.003L110.002 154.706C109.237 154.025 108.301 153.599 107.196 153.599C104.901 153.599 103.116 155.472 103.116 157.685C103.116 159.898 104.986 161.771 107.196 161.771C108.301 161.771 109.237 161.345 110.002 160.664L119.863 166.453C119.778 166.793 119.778 167.134 119.778 167.474C119.778 169.772 121.648 171.56 123.859 171.56C126.069 171.56 127.939 169.687 127.939 167.474C127.939 165.261 126.069 163.388 123.859 163.388Z" fill="#FBFDFD"/>
<path d="M249.337 183.392H224.683L211.251 192.159V146.534C211.251 139.044 218.137 133 226.724 133H249.337C257.838 133 264.809 139.044 264.809 146.534V169.942C264.809 177.348 257.838 183.392 249.337 183.392Z" fill="#F6C541"/>
<mask id="mask1" mask-type="alpha" maskUnits="userSpaceOnUse" x="221" y="149" width="34" height="22">
<path d="M251.17 170.512H224.196C222.548 170.512 221.16 169.182 221.16 167.604V151.984C221.16 150.406 222.548 149.076 224.196 149.076H251.17C252.818 149.076 254.206 150.406 254.206 151.984V167.604C254.206 169.182 252.818 170.512 251.17 170.512Z" fill="white"/>
</mask>
<g mask="url(#mask1)">
<path d="M251.17 170.512H224.196C222.548 170.512 221.16 169.182 221.16 167.604V151.984C221.16 150.406 222.548 149.076 224.196 149.076H251.17C252.818 149.076 254.206 150.406 254.206 151.984V167.604C254.206 169.182 252.818 170.512 251.17 170.512Z" fill="white"/>
<path d="M220.683 150.638L237.202 160.512C237.571 160.735 238.087 160.735 238.529 160.568L258.145 150.638C259.104 150.192 258.662 149.076 257.555 149.076H221.421C220.315 149.132 219.872 150.081 220.683 150.638Z" fill="#EAEAEA"/>
</g>
<path d="M258.688 148.918C258.688 144.662 255.203 141.172 250.952 141.172C246.702 141.172 243.216 144.662 243.216 148.918C243.216 153.174 246.702 156.664 250.952 156.664C255.288 156.664 258.688 153.174 258.688 148.918Z" fill="#FFDF8A"/>
<path d="M250.612 146.619H249.082C248.827 146.619 248.742 146.534 248.572 146.449C248.487 146.364 248.402 146.194 248.402 145.938C248.402 145.768 248.402 145.683 248.487 145.513C248.572 145.428 248.657 145.342 248.742 145.342C248.742 145.342 248.912 145.342 249.252 145.257C249.507 145.257 249.762 145.172 250.017 145.087C250.272 145.002 250.527 144.747 250.697 144.406L250.782 144.236C250.952 143.895 251.207 143.725 251.547 143.725C251.802 143.725 251.972 143.81 252.142 143.895C252.312 144.066 252.312 144.236 252.312 144.491V151.726C252.312 152.067 252.227 152.237 252.057 152.407C251.887 152.578 251.717 152.663 251.377 152.663C251.122 152.663 250.867 152.578 250.697 152.407C250.527 152.237 250.442 152.067 250.442 151.726V146.619H250.612Z" fill="#FEFEFE"/>
<path d="M267.02 209.268C266.339 207.991 264.894 204.842 265.744 201.012C266.339 198.373 267.7 196.5 268.55 195.649C268.805 194.968 269.74 193.095 271.95 191.904C275.351 190.116 278.751 191.819 279.091 191.989C279.516 191.904 282.832 190.967 285.722 193.095C287.763 194.628 288.358 196.67 288.528 197.351C289.123 197.777 290.738 199.054 291.503 201.352C292.608 204.757 290.823 207.736 290.568 208.162C290.823 209.353 291.418 212.162 289.973 214.971C287.848 219.227 282.577 221.015 278.666 220.419C273.395 219.568 269.995 214.205 267.445 210.119C267.275 209.779 267.105 209.524 267.02 209.268Z" fill="#272742"/>
<path d="M257.073 410.154C258.008 409.728 253.928 418.496 253.928 418.496C253.928 418.496 248.487 422.071 247.722 423.262C245.171 427.263 251.207 428.199 256.393 428.199C261.579 428.114 266.935 427.774 267.785 426.582C268.635 425.39 269.23 412.111 269.23 412.111L257.073 410.154Z" fill="#8E6654"/>
<path d="M281.472 411.09C281.472 411.09 279.771 420.283 279.856 421.389C280.026 423.262 279.091 425.901 280.281 426.837C281.472 427.774 299.664 428.029 300.514 428.029C301.364 428.029 301.62 426.837 302.385 425.305C303.15 423.688 301.279 421.475 298.644 420.538C296.009 419.517 294.393 414.835 293.883 411.856C293.373 408.792 281.472 411.09 281.472 411.09Z" fill="#8E6654"/>
<path d="M299.494 305.795L297.964 360.188C297.964 360.188 300.6 369.125 300.515 371.594C300.43 374.062 298.559 379.425 297.964 381.723C297.369 384.021 298.814 398.747 297.964 400.365C297.114 402.067 297.284 403.514 297.029 405.898C296.774 408.281 296.009 410.664 296.009 410.664V414.75C296.009 414.75 290.058 412.963 288.443 413.729C286.828 414.41 284.022 415.857 282.067 415.346C280.112 414.75 278.496 410.579 280.282 407.259C282.067 403.94 281.132 393.044 280.792 388.277C280.537 383.426 283.002 374.062 282.917 371.168C282.917 368.274 277.306 336.524 277.306 336.524C277.306 336.524 276.371 333.885 275.776 333.97C275.096 334.056 271.695 356.527 271.61 357.123C271.525 357.719 269.91 365.635 270.08 369.891C270.25 374.062 269.825 384.192 270.08 387.511C270.335 390.916 271.015 397.3 271.185 400.535C271.27 403.684 271.015 414.41 269.995 415.516C268.975 416.538 264.724 413.814 261.834 413.814C258.944 413.814 255.968 413.133 254.098 412.111C252.228 411.09 252.908 389.639 252.738 386.66C252.568 383.681 249.932 374.062 250.272 371.934C250.612 369.806 252.908 357.208 252.483 350.739C252.057 344.27 250.697 329.459 249.847 322.479C248.997 315.499 252.057 305.881 252.057 305.881H299.494V305.795Z" fill="#F4B713"/>
<path d="M275.776 333.97C275.776 333.97 277.476 329.885 277.986 325.288C279.686 333.119 278.326 342.312 278.326 342.312L275.776 333.97Z" fill="#CE9B11"/>
<path d="M270.335 214.461C270.675 215.056 274.671 221.015 270.845 225.952C265.659 232.676 264.384 235.06 264.044 235.06C271.355 235.911 274.501 236.932 274.501 236.932H280.026L290.993 233.187C289.633 232.506 286.402 230.719 284.022 226.888C281.216 222.292 281.557 217.695 281.727 216.248C282.662 214.205 282.407 213.269 282.067 212.758C280.281 210.29 271.525 213.95 270.335 214.461Z" fill="#EAC5B0"/>
<path d="M271.61 224.59L277.306 235.315L283.257 225.356L298.049 235.315C298.049 235.315 299.324 277.961 300.004 286.728C300.599 295.496 301.62 312.265 301.62 312.265C301.62 312.265 294.734 314.988 291.078 313.626C287.423 312.265 261.069 310.051 255.713 310.817C250.272 311.498 249.167 310.903 249.082 308.009C248.997 305.114 254.013 285.026 254.013 280.6C254.013 276.173 252.312 251.744 252.312 251.744L259.453 232.847L271.61 224.59Z" fill="#FFAD47"/>
<path d="M267.019 203.055C267.019 203.055 266.509 206.034 267.019 208.247C266.934 209.779 266.849 213.354 267.189 214.546C267.955 217.1 272.035 223.739 274.671 224.505C277.561 225.441 286.232 219.057 286.232 215.567C287.167 216.419 289.123 215.227 289.208 212.843C289.293 210.46 288.528 208.502 286.402 210.375C286.657 206.204 286.742 204.757 286.317 203.31C285.807 201.863 283.852 197.011 276.966 196.671C271.1 196.5 267.104 199.48 267.019 203.055Z" fill="#EAC5B0"/>
<path d="M286.742 211.566C286.742 212.077 287.508 211.652 287.508 212.503C287.508 213.354 286.912 212.843 286.912 213.524C286.912 214.205 288.528 213.865 288.613 212.503C288.528 211.141 286.742 210.8 286.742 211.566Z" fill="#CE9D81"/>
<path d="M281.727 275.748L289.208 273.109L293.033 273.45L296.859 270.215L289.123 265.618L280.876 270.896L281.727 275.748Z" fill="#EAC5B0"/>
<path d="M275.946 259.49L264.129 261.958L258.688 265.618L265.149 270.641L273.14 269.279L277.306 262.469L275.946 259.49Z" fill="#EAC5B0"/>
<path d="M271.61 224.59C271.61 224.59 250.952 232.421 249.507 233.953C248.062 235.486 244.491 240.933 245.341 251.488C246.106 262.043 248.147 275.152 248.147 275.152C248.147 275.152 248.827 276.684 252.057 278.301C255.288 279.919 281.982 277.705 284.362 276.854C284.787 275.237 284.787 269.959 284.787 269.959C284.787 269.959 262.259 265.703 260.389 264.086C261.324 259.66 260.814 253.872 259.453 247.402C258.263 240.763 271.61 224.59 271.61 224.59Z" fill="#FFC57D"/>
<path d="M283.257 225.356C283.257 225.356 288.188 228.506 292.608 228.761C297.029 228.931 297.794 229.697 302.64 233.698C307.485 237.699 313.351 256.766 309.526 263.49C305.785 270.13 300.684 274.726 297.709 273.875C294.649 273.024 272.8 267.832 272.8 267.832C272.8 267.832 271.015 267.236 270.93 266.044C270.845 264.852 271.44 260.341 272.035 259.319C272.63 258.213 293.883 257.957 297.199 259.234C295.924 253.531 294.478 248.509 296.264 243.913C298.049 239.316 291.843 232.677 291.843 232.677L283.257 225.356Z" fill="#FFC57D"/>
<path d="M267.785 205.778C268.55 204.161 268.975 202.714 269.23 201.437C269.485 201.607 270.675 202.373 272.29 202.118C274.501 201.692 275.351 199.479 275.351 199.394C276.201 200.331 277.391 201.437 278.836 201.267C279.176 201.267 279.431 201.097 279.601 201.097C280.537 200.756 282.067 200.671 284.702 201.948H284.787C284.872 202.033 284.617 205.863 284.872 207.481C284.957 208.247 285.382 209.353 286.402 210.545C288.783 206.97 289.123 202.544 287.253 199.139C284.532 194.287 278.496 193.436 274.501 194.372C273.566 194.627 269.74 195.479 267.53 199.224C265.149 203.225 266.509 207.31 266.68 207.906C267.02 207.14 267.36 206.459 267.785 205.778Z" fill="#272742"/>
<path d="M269.06 225.526L270.845 234.89L273.225 232.336L277.306 235.23C276.031 231.144 272.715 227.654 272.035 223.654C271.95 223.058 271.44 223.143 270.845 222.717L269.06 225.526Z" fill="#D38309"/>
<path d="M285.552 225.526L284.702 234.209L281.472 232.421L277.391 235.315C279.261 231.74 281.982 227.739 282.662 223.739C282.747 223.143 282.832 223.398 283.427 222.973L285.552 225.526Z" fill="#D38309"/>
<path d="M147.322 232.166C147.322 232.166 150.723 225.696 151.233 222.036C151.658 218.376 161.519 222.036 161.519 222.036C161.519 222.036 162.879 232.08 165.77 234.889C168.66 237.698 157.439 241.273 157.098 241.273C156.843 241.359 147.322 232.166 147.322 232.166Z" fill="#EAC5B0"/>
<path d="M146.812 219.397C146.727 220.504 146.642 222.717 147.832 225.015C148.172 225.611 148.852 226.973 150.298 227.995C151.233 228.761 152.168 229.101 152.763 229.271C153.358 229.527 154.633 229.952 156.418 229.952C157.864 229.952 159.479 229.527 160.924 228.676C161.264 228.42 161.604 228.08 161.944 227.824C162.284 227.569 162.624 227.484 162.964 227.229C163.219 226.973 163.304 226.718 163.559 226.377C163.73 226.207 163.815 226.122 163.985 225.952C164.07 225.867 165.345 223.228 165.005 219.057C165.005 219.057 165.005 218.802 165.09 217.014C165.345 212.588 166.11 211.396 166.62 207.225C167.3 201.437 166.195 199.82 165.855 199.309C165.09 198.373 164.24 197.862 163.559 197.521C163.474 196.755 163.134 195.649 162.199 194.968C161.264 194.202 160.074 194.202 155.483 194.542C151.913 194.798 151.148 194.883 149.957 194.627C148.257 194.287 146.897 193.606 146.047 193.01C144.772 194.627 143.752 196.67 143.582 199.139C143.412 201.096 143.922 202.288 144.602 205.608C144.942 207.31 145.367 209.609 145.622 212.418" fill="#272742"/>
<path d="M176.481 407.429L172.401 414.92C172.571 417.048 172.571 419.176 172.401 421.389C172.316 423.007 171.891 424.794 172.231 426.411C172.401 427.092 172.826 427.518 173.506 427.773C175.036 428.369 176.906 428.114 178.522 428.114C180.732 428.114 182.942 428.199 185.153 428.114C186.173 428.114 187.023 428.029 187.533 427.092C188.383 425.73 188.213 424.028 187.448 422.666C186.513 420.964 185.068 419.857 183.878 418.41C183.112 417.474 182.687 416.282 182.517 415.175C182.432 414.835 182.432 414.409 182.432 413.984L176.481 407.429Z" fill="#8E6654"/>
<path d="M135.93 405.982L128.449 413.558C128.279 415.431 127.939 417.218 126.919 418.836C126.494 419.602 125.899 420.283 125.304 420.879C124.709 421.474 123.944 421.985 123.434 422.666C122.498 423.688 122.073 425.305 122.498 426.667C122.668 427.178 123.179 427.433 123.689 427.603C125.304 428.114 127.174 428.029 128.874 428.029C131 428.029 133.125 428.284 135.25 428.029C136.185 427.944 137.206 427.773 137.631 426.837C138.141 425.901 138.056 424.624 137.971 423.602C137.886 421.304 137.801 418.921 137.971 416.623C138.056 416.112 138.056 415.516 138.141 415.005L135.93 405.982Z" fill="#8E6654"/>
<path d="M146.302 232.932C145.792 233.272 139.841 236.847 137.376 238.209C136.1 238.975 134.74 239.741 133.465 240.507C132.36 241.188 131.17 241.869 130.234 242.806C128.364 244.593 127.089 246.976 126.069 249.275C124.964 251.828 124.199 254.467 123.603 257.191C123.093 259.574 122.838 261.958 122.583 264.341C122.158 268.086 121.733 271.832 121.308 275.577C121.053 277.79 120.883 280.088 121.138 282.302C121.308 283.749 121.648 285.111 121.903 286.558C122.158 287.834 122.413 289.196 122.923 290.473C123.518 292.176 124.369 293.538 125.899 294.559C127.089 295.325 128.364 295.921 129.639 296.687C130.745 297.453 131.85 298.219 133.04 298.985H149.192L181.497 296.602C183.707 295.325 185.578 293.708 186.938 291.58C188.383 289.367 189.743 286.643 190.083 284.004C190.338 282.046 189.658 279.833 190.763 278.046C191.869 276.258 191.614 273.79 191.443 271.832C191.188 268.512 190.508 265.192 189.913 261.958C189.403 259.064 189.063 256.17 188.978 253.19C188.893 251.743 188.893 250.296 188.553 248.934C188.213 247.487 187.533 246.21 186.768 245.019C185.918 243.657 184.983 242.465 184.132 241.188C183.622 240.422 183.197 239.656 182.517 239.06C181.667 238.379 180.562 237.954 179.627 237.528C177.841 236.762 176.056 235.996 174.271 235.315C172.911 234.719 171.551 234.123 170.105 233.527C168.915 233.017 166.445 232.457 165.34 231.691C165.085 231.52 160.159 237.613 159.989 237.358" fill="#FFC57D"/>
<path d="M136.27 256.17C133.635 255.233 125.474 298.475 127.854 300.858C129.044 302.05 139.416 302.22 139.416 302.22L136.27 256.17Z" fill="#FFC57D"/>
<path d="M176.651 252.169C179.882 251.743 187.023 291.154 186.173 297.028C185.408 302.731 177.331 302.135 177.331 302.135L176.651 252.169Z" fill="#FFC57D"/>
<path d="M146.387 206.885C146.472 209.013 146.387 211.141 146.557 213.269C146.642 215.056 146.812 217.014 147.577 218.631C149.022 221.951 149.022 219.908 153.953 216.929C155.398 215.993 157.779 216.078 159.139 217.184C161.179 218.887 162.964 219.312 163.219 219.227C163.56 219.142 163.73 218.972 163.9 218.631C164.07 218.121 164.07 217.525 164.07 217.099C165.005 206.629 164.155 205.523 162.879 202.288C162.709 201.863 162.539 201.522 162.199 201.182C160.329 199.309 157.439 201.011 154.803 200.501C151.233 199.82 147.577 201.863 146.472 205.353C146.387 205.948 146.387 206.374 146.387 206.885Z" fill="#EAC5B0"/>
<path d="M145.877 212.843C145.282 211.992 144.517 212.928 144.347 213.609C144.007 214.886 144.262 216.333 144.602 217.525C144.772 218.206 145.112 219.142 145.792 219.483C146.047 219.653 146.557 219.738 146.812 219.483" fill="#EAC5B0"/>
<path d="M164.92 219.227C166.11 219.482 166.62 217.78 166.875 217.014C167.215 215.822 167.3 214.46 167.13 213.183C167.045 212.673 166.96 211.992 166.45 211.566C166.195 211.396 165.94 211.396 165.685 211.651" fill="#EAC5B0"/>
<path d="M163.899 312.094L132.785 314.137C132.36 315.329 132.02 316.861 132.36 318.138C132.53 318.904 132.785 319.5 132.87 320.266C132.955 321.202 132.955 322.223 132.955 323.245C131.85 347.76 133.465 358.4 133.38 358.996C131.85 369.721 133.55 363.933 131.85 366.656C131.765 366.742 129.044 392.193 128.364 395.512C128.024 397.47 127.854 399.428 128.364 401.386C128.704 402.748 129.469 403.854 129.384 405.301C129.299 405.897 129.214 406.493 128.959 407.004C128.704 407.6 128.194 408.11 127.939 408.706C127.429 409.728 127.514 411.175 127.684 412.281C127.769 412.792 127.939 413.388 128.534 413.643C128.959 413.899 129.554 413.899 130.064 413.899C131.255 413.899 132.36 413.899 133.55 413.984C134.57 414.069 135.59 414.239 136.61 414.494C137.121 414.665 137.716 415.005 138.311 415.005C138.991 415.005 139.416 414.494 139.756 413.984C140.096 413.473 140.351 412.877 140.436 412.366C140.691 411.345 140.946 410.323 141.201 409.217C141.796 407.429 141.711 405.557 141.626 403.684C141.456 401.13 141.456 398.662 141.966 396.108C141.966 396.023 152.083 349.888 152.083 349.803C152.763 347.504 153.613 345.206 154.208 342.823C154.888 340.269 155.483 337.8 156.078 335.247C156.418 334.055 156.673 332.778 156.928 331.587C156.928 331.587 156.928 331.076 157.183 330.48C157.268 330.225 157.439 330.65 157.524 330.821C157.694 331.161 157.864 331.076 157.864 331.757C157.864 332.693 157.864 333.204 157.864 333.715C157.864 334.992 158.034 336.353 158.289 337.545C158.544 338.481 158.969 339.248 159.394 340.099C159.989 341.205 160.414 342.312 160.839 343.418C161.604 345.206 162.624 346.994 163.049 348.951C168.405 376.02 167.725 383.255 170.36 392.533C172.316 399.343 168.235 400.535 169.85 407.089C170.105 408.195 170.275 409.387 170.53 410.494C170.7 411.26 171.041 411.856 171.296 412.622C171.721 413.728 171.806 415.601 173.336 414.835C175.121 413.984 176.991 413.558 178.947 413.558C180.052 413.558 181.157 413.813 182.262 413.984C182.517 413.984 182.772 414.069 182.942 413.984C183.622 413.728 183.452 412.366 183.537 411.856C183.622 411.09 184.047 409.898 183.367 409.217C182.942 408.791 182.262 408.451 182.177 407.855C182.092 407.514 182.262 407.174 182.347 406.919C182.687 406.067 183.282 405.301 183.622 404.45C184.473 402.492 185.238 400.194 185.578 398.066C185.833 396.023 184.132 393.81 183.622 378.829C183.537 376.53 183.962 374.232 183.707 371.934C183.622 371.338 183.452 370.657 183.622 370.061C183.707 369.551 183.962 369.125 184.047 368.614C184.217 367.593 183.537 366.827 182.942 366.146C182.347 365.465 182.347 364.954 182.432 364.018C182.772 361.89 182.432 359.762 182.602 357.549C182.602 357.463 182.857 317.457 182.177 314.477L163.899 312.094Z" fill="#AB6610"/>
<path d="M157.297 330.434C157.297 330.434 160.499 330.565 162.029 330.054C163.474 329.544 157.799 333.42 157.799 333.42L157.297 330.434Z" fill="#9B5D0F"/>
<path d="M165.34 231.691L156.843 235.826L146.302 233.357L134.995 258.979C135.08 260.766 136.015 262.298 136.185 264.086C136.355 265.618 136.185 267.065 135.93 268.597C135.675 270.3 135.335 272.002 134.995 273.705C134.655 275.322 134.23 276.939 134.06 278.642C133.89 280.259 133.89 281.961 133.89 283.579C133.805 287.239 133.295 290.899 132.955 294.474C132.87 295.666 132.7 296.857 132.87 297.964C133.04 299.496 133.55 300.943 133.89 302.39C134.06 303.156 134.145 303.922 133.89 304.689C133.72 305.455 133.38 306.221 133.295 307.072C133.21 308.434 134.145 309.711 133.38 310.987C132.7 312.094 132.19 313.286 133.04 314.477C134.825 316.776 137.205 318.733 139.926 319.84C142.816 321.032 145.877 321.628 148.937 322.138C152.253 322.649 155.568 322.819 158.884 322.734C162.199 322.649 165.43 322.309 168.66 321.628C171.806 320.947 175.036 319.925 177.926 318.393C179.542 317.542 181.072 316.52 181.837 314.818C183.027 312.349 182.772 309.115 182.687 306.476C182.517 303.156 182.092 299.837 181.412 296.517C180.732 293.112 179.797 289.707 179.202 286.302C178.947 284.77 178.777 283.153 178.692 281.536C178.692 279.918 178.692 278.301 178.522 276.684C178.351 275.152 177.926 273.705 177.416 272.258C176.906 270.725 176.651 269.278 176.566 267.576C176.566 266.299 176.481 264.852 176.736 263.66C176.906 262.979 177.331 262.383 177.671 261.788C178.011 261.192 178.096 260.596 178.266 259.915L165.34 231.691Z" fill="#FFAD47"/>
<path d="M148.002 228.931C147.662 228.676 147.152 230.719 147.152 230.804C146.897 231.57 146.132 232.421 146.217 233.357C146.302 233.868 146.557 234.294 146.727 234.804C147.152 235.741 147.662 236.762 148.087 237.698C148.342 238.294 148.597 238.805 148.682 239.486C148.682 239.656 148.682 239.997 148.852 240.167C149.192 240.507 149.957 240.167 150.297 240.082C151.318 239.741 152.253 239.231 153.018 238.55C153.698 237.869 154.293 237.188 155.058 236.677C155.313 236.507 156.078 236.081 156.163 235.741C156.163 235.57 156.163 235.57 155.993 235.4C155.568 234.975 154.633 234.719 154.123 234.379C152.508 233.613 150.807 232.761 149.447 231.57C149.107 231.229 148.767 230.889 148.512 230.463C148.257 230.038 148.937 229.442 148.767 229.016C148.852 228.846 148.087 229.016 148.002 228.931Z" fill="#D38309"/>
<path d="M157.354 235.57C157.439 235.315 157.779 235.06 158.034 234.889C158.714 234.208 159.309 233.527 159.989 232.846C161.094 231.825 162.284 230.974 163.134 229.612C163.389 229.271 162.624 228.676 162.794 228.335C162.964 228.08 163.644 228.08 163.9 227.995C164.07 227.995 164.155 227.909 164.24 227.909C164.58 228.08 164.835 228.42 165.005 228.761C165.175 229.186 165.345 229.612 165.43 230.037C165.77 231.144 165.77 232.336 165.685 233.527C165.515 234.889 165.09 236.166 165.175 237.528C165.175 237.869 165.345 238.805 164.92 238.975C164.41 239.145 163.474 238.379 163.134 238.209C161.859 237.443 160.584 236.422 159.054 235.996C158.714 235.911 158.459 235.826 158.119 235.826C157.949 235.826 157.439 235.911 157.269 235.741C157.354 235.655 157.269 235.57 157.354 235.57Z" fill="#D38309"/>
<path d="M203.345 201.607C203.345 201.607 204.875 197.181 212.782 197.181C215.247 197.181 217.117 197.777 218.477 198.713C221.538 200.756 222.558 204.076 223.068 205.778C228.764 225.441 231.569 235.315 227.319 240.848C222.473 247.232 211.761 250.381 206.151 246.551C203.345 244.678 202.495 241.529 201.56 238.124C199.18 229.016 201.39 220.759 203.345 215.822C203.345 215.822 202.155 208.076 202.155 206.204C202.155 204.416 203.345 201.607 203.345 201.607Z" fill="#363A68"/>
<path d="M214.652 339.333C215.077 344.44 215.077 352.016 212.356 360.528C211.166 364.103 209.806 367.082 208.361 369.636C209.211 376.36 208.361 381.127 207.681 383.936C207.341 385.383 206.831 386.745 206.746 387C205.555 390.065 203.855 391.512 202.325 396.534C200.795 401.556 200.455 407.685 200.54 410.494C197.819 410.409 195.779 408.791 192.974 408.706C194.164 397.641 196.799 367.082 197.139 362.826C197.819 354.74 198.244 346.994 198.499 339.418C203.94 339.418 209.296 339.418 214.652 339.333Z" fill="#EAC5B0"/>
<path d="M221.793 338.822C222.303 344.525 222.813 350.399 223.578 356.357C224.003 360.102 224.513 363.763 224.938 367.338C224.428 369.21 224.003 371.934 224.258 375.169C224.428 377.382 224.853 379.255 225.278 380.702C225.704 389.469 226.299 392.193 226.724 400.96C228.849 402.407 231.144 402.748 233.355 402.748C233.78 400.194 234.29 394.576 234.97 389.98C236.585 378.999 237.18 379.425 237.265 375.85C237.435 366.997 235.735 365.976 235.65 357.634C235.565 349.462 237.01 342.823 238.37 338.482C232.76 338.482 227.234 338.652 221.793 338.822Z" fill="#EAC5B0"/>
<path d="M215.502 235.145L233.355 234.379C232.93 241.189 233.44 245.53 234.545 252.169C234.545 252.169 231.824 264.256 232.249 270.215C232.59 276.173 239.816 298.645 240.836 301.965C241.346 303.582 241.941 304.433 242.451 305.966C244.066 310.477 243.981 314.307 243.981 315.329C244.066 318.819 245.086 326.139 249.507 343.078C245.681 345.717 240.156 348.611 233.355 349.037C225.278 349.547 221.283 346.398 211.846 345.802C207.341 345.547 201.135 345.802 193.654 348.271C194.419 328.267 195.184 308.264 195.949 288.175L193.994 236.762L215.502 235.145Z" fill="#F4B713"/>
<path d="M206.576 219.227C206.916 219.738 209.466 224.164 207.511 229.271C205.215 235.23 201.815 236.166 201.475 236.166C207.936 236.592 210.486 236.336 210.486 236.336C210.486 236.336 211.506 248.509 213.207 248.509C214.907 248.509 215.927 236.251 215.927 236.251L225.363 234.719C224.088 234.208 221.198 232.761 219.072 229.442C216.437 225.526 216.522 221.525 216.607 220.248C217.287 218.376 217.032 217.61 216.777 217.184C215.077 215.141 207.511 218.716 206.576 219.227Z" fill="#EAC5B0"/>
<path d="M203.175 209.353C203.175 209.353 203.26 211.907 203.77 213.779C203.77 215.141 203.43 218.376 203.77 219.397C204.535 221.611 208.106 227.824 210.741 227.824C213.377 227.824 220.603 222.547 220.518 219.483C221.368 220.163 223.068 219.057 223.068 216.929C223.068 214.801 222.303 213.184 220.518 214.886C220.603 211.226 220.603 209.949 220.093 208.672C219.583 207.395 217.712 203.31 211.591 203.31C206.491 203.48 203.09 206.204 203.175 209.353Z" fill="#EAC5B0"/>
<path d="M220.688 215.993C220.688 216.418 221.368 216.078 221.368 216.759C221.368 217.44 220.858 217.099 220.858 217.695C220.858 218.291 222.303 217.951 222.303 216.759C222.303 215.567 220.688 215.397 220.688 215.993Z" fill="#CE9D81"/>
<path d="M196.204 325.798C196.459 325.798 196.544 326.054 196.629 326.309C196.799 326.905 196.969 327.501 197.224 328.097C197.394 328.607 197.479 329.118 197.734 329.544C197.989 329.969 198.329 330.31 198.84 330.395C199.095 330.48 199.52 330.565 199.69 330.31C199.945 330.054 199.775 329.459 199.69 329.203C199.605 328.437 199.435 327.671 199.265 326.905C198.159 322.989 198.585 322.904 197.904 321.202C197.054 319.159 195.269 318.563 195.014 317.286C194.759 316.18 195.014 314.903 195.184 313.796C195.269 313.115 195.354 312.349 195.439 311.668H195.354L196.374 299.496C196.374 299.496 198.585 291.41 198.414 284.855C198.244 278.301 195.864 257.276 195.864 257.276C197.054 250.466 197.23 243.92 194 236.77C194 236.77 187.448 237.783 186.343 241.784C185.493 245.019 185.238 256.85 185.833 260.766C186.428 264.767 189.063 278.727 189.063 278.727C189.063 278.727 187.363 281.876 187.958 287.154C188.468 291.41 188.978 307.753 189.233 314.052C189.233 314.733 189.233 315.499 189.318 316.18C189.318 316.265 189.318 316.35 189.318 316.435C189.318 316.52 189.318 316.52 189.318 316.52C189.403 317.627 189.743 318.648 189.828 319.67C190.253 324.351 189.318 325.713 189.828 327.075C189.828 327.16 191.358 330.565 191.698 330.82C192.039 331.161 192.379 331.501 192.719 331.842C193.059 332.097 195.524 333.204 195.949 333.374C196.629 333.629 197.309 333.885 197.989 334.055C198.329 334.14 198.67 334.31 199.01 334.31C199.265 334.31 199.435 334.225 199.435 334.055C200.115 332.097 196.204 333.289 195.439 327.416C195.354 326.99 195.269 326.479 195.524 326.139C195.609 326.139 195.949 325.798 196.204 325.798Z" fill="#EAC5B0"/>
<path d="M233.269 234.379C231.994 241.018 232.334 245.7 234.46 252.169C234.46 252.169 237.35 251.914 238.71 253.191C240.07 254.553 252.992 268.002 253.162 268.597C253.332 269.193 253.587 269.449 253.162 270.3C252.737 271.151 241.091 284.856 241.091 284.856C241.091 284.856 239.815 283.919 238.71 282.898C237.775 282.047 237.095 281.195 236.16 281.195C235.395 281.28 234.205 281.961 233.014 282.557C231.144 283.579 229.274 284.6 229.274 284.6C228.339 287.92 229.699 289.452 232.249 290.133C232.249 290.133 235.31 288.941 235.905 289.112C236.585 289.282 236.415 290.474 237.265 290.984C239.475 292.091 245.596 288.686 245.766 287.665C245.766 287.665 262.259 272.939 262.429 272.598C262.599 272.343 263.449 270.3 263.449 268.938C263.449 267.576 259.623 262.724 259.623 262.724C259.623 262.724 242.451 238.635 239.645 236.762C236.925 234.89 233.269 234.379 233.269 234.379Z" fill="#EAC5B0"/>
<path d="M199.094 408.621C197.224 408.791 195.694 410.153 195.269 411.941C194.844 413.899 194.079 416.197 192.974 418.325C191.188 421.645 184.217 424.539 182.687 424.624C181.752 424.709 181.157 424.113 180.902 423.687C179.287 424.283 178.011 424.709 178.011 424.709C178.011 424.709 175.121 428.454 177.841 428.539C180.222 428.625 184.132 428.625 184.727 428.369C191.443 425.475 195.099 424.794 195.099 424.794V428.029H199.945L200.455 408.366L199.094 408.621Z" fill="#F4B713"/>
<path d="M182.687 424.624C184.217 424.539 191.188 421.645 192.974 418.325C194.079 416.282 194.844 413.899 195.269 411.941C195.694 410.153 197.224 408.791 199.094 408.621L200.455 408.451L201.56 399.513L193.739 401.216C193.739 401.216 192.634 411.345 190.763 414.665C188.808 417.984 186.513 420.964 184.047 422.326C183.027 422.836 182.007 423.347 180.987 423.688C181.157 424.113 181.752 424.624 182.687 424.624Z" fill="#EAC5B0"/>
<path d="M226.723 400.875V421.559L227.403 423.006L227.659 423.432C227.659 423.432 229.189 428.029 233.269 427.773C237.35 427.518 236.33 421.219 236.33 421.219L233.779 414.324L233.354 402.918L226.723 400.875Z" fill="#F4B713"/>
<path d="M226.723 400.875C226.723 400.875 228.679 404.195 228.764 407.174C228.849 410.153 229.104 415.771 229.189 417.899C229.274 419.516 230.719 421.474 232.504 421.474C234.97 421.474 234.8 417.048 234.8 417.048L234.204 413.813L233.354 402.577L226.723 400.875Z" fill="#EAC5B0"/>
<path d="M207.511 202.629C207.511 202.629 209.466 208.076 213.377 209.609C217.797 211.226 222.898 211.226 222.898 211.226C222.898 211.226 220.093 202.033 217.287 201.437C214.567 200.841 207.511 202.629 207.511 202.629Z" fill="#363A68"/>
<path d="M209.211 202.203C208.361 206.119 207.086 207.395 206.491 207.906C206.406 207.991 206.406 207.991 206.406 207.991C204.96 209.013 203.6 209.183 202.665 209.268C202.495 208.417 202.24 206.885 202.75 205.097C203.09 203.735 203.515 202.118 204.96 201.437C206.831 200.501 209.126 202.203 209.211 202.203Z" fill="#363A68"/>
</g>
</svg>
