<svg width="203" height="166" viewBox="0 0 203 166" fill="none" xmlns="http://www.w3.org/2000/svg">
<path d="M202.9 0H0.699951V165.3H202.9V0Z" fill="#DAE4F4"/>
<path d="M176.5 67H43.1001V143.2H176.5V67Z" fill="#9FDBEE"/>
<path d="M177 63H43V45H177V63Z" fill="#63ABC1"/>
<path d="M67.2 122.4C76.6992 122.4 84.3999 114.699 84.3999 105.2C84.3999 95.7007 76.6992 88 67.2 88C57.7007 88 50 95.7007 50 105.2C50 114.699 57.7007 122.4 67.2 122.4Z" fill="#F26C5D"/>
<rect x="95" y="80" width="73" height="5" rx="2.5" fill="#63ABC1"/>
<rect x="95" y="95" width="73" height="5" rx="2.5" fill="#63ABC1"/>
<rect x="95" y="110" width="73" height="5" rx="2.5" fill="#63ABC1"/>
<rect x="95" y="125" width="73" height="5" rx="2.5" fill="#63ABC1"/>
</svg>
