<svg width="1140" height="65" viewBox="0 0 1140 65" fill="none" xmlns="http://www.w3.org/2000/svg">
<circle cx="10" cy="6" r="1" fill="white" fill-opacity="0.3"/>
<circle cx="30" cy="6" r="1" fill="white" fill-opacity="0.3"/>
<circle cx="50" cy="6" r="1" fill="white" fill-opacity="0.3"/>
<circle cx="70" cy="6" r="1" fill="white" fill-opacity="0.3"/>
<circle cx="90" cy="6" r="1" fill="white" fill-opacity="0.3"/>
<circle cx="110" cy="6" r="1" fill="white" fill-opacity="0.3"/>
<circle cx="130" cy="6" r="1" fill="white" fill-opacity="0.3"/>
<circle cx="150" cy="6" r="1" fill="white" fill-opacity="0.3"/>
<circle cx="170" cy="6" r="1" fill="white" fill-opacity="0.3"/>
<circle cx="190" cy="6" r="1" fill="white" fill-opacity="0.3"/>
<circle cx="210" cy="6" r="1" fill="white" fill-opacity="0.3"/>
<circle cx="230" cy="6" r="1" fill="white" fill-opacity="0.3"/>
<circle cx="250" cy="6" r="1" fill="white" fill-opacity="0.3"/>
<circle cx="270" cy="6" r="1" fill="white" fill-opacity="0.3"/>
<circle cx="290" cy="6" r="1" fill="white" fill-opacity="0.3"/>
<circle cx="310" cy="6" r="1" fill="white" fill-opacity="0.3"/>
<circle cx="330" cy="6" r="1" fill="white" fill-opacity="0.3"/>
<circle cx="350" cy="6" r="1" fill="white" fill-opacity="0.3"/>
<circle cx="370" cy="6" r="1" fill="white" fill-opacity="0.3"/>
<circle cx="390" cy="6" r="1" fill="white" fill-opacity="0.3"/>
<circle cx="410" cy="6" r="1" fill="white" fill-opacity="0.3"/>
<circle cx="430" cy="6" r="1" fill="white" fill-opacity="0.3"/>
<circle cx="450" cy="6" r="1" fill="white" fill-opacity="0.3"/>
<circle cx="470" cy="6" r="1" fill="white" fill-opacity="0.3"/>
<circle cx="490" cy="6" r="1" fill="white" fill-opacity="0.3"/>
<circle cx="510" cy="6" r="1" fill="white" fill-opacity="0.3"/>
<circle cx="530" cy="6" r="1" fill="white" fill-opacity="0.3"/>
<circle cx="550" cy="6" r="1" fill="white" fill-opacity="0.3"/>
<circle cx="570" cy="6" r="1" fill="white" fill-opacity="0.3"/>
<circle cx="590" cy="6" r="1" fill="white" fill-opacity="0.3"/>
<circle cx="610" cy="6" r="1" fill="white" fill-opacity="0.3"/>
<circle cx="630" cy="6" r="1" fill="white" fill-opacity="0.3"/>
<circle cx="650" cy="6" r="1" fill="white" fill-opacity="0.3"/>
<circle cx="670" cy="6" r="1" fill="white" fill-opacity="0.3"/>
<circle cx="690" cy="6" r="1" fill="white" fill-opacity="0.3"/>
<circle cx="710" cy="6" r="1" fill="white" fill-opacity="0.3"/>
<circle cx="730" cy="6" r="1" fill="white" fill-opacity="0.3"/>
<circle cx="750" cy="6" r="1" fill="white" fill-opacity="0.3"/>
<circle cx="770" cy="6" r="1" fill="white" fill-opacity="0.3"/>
<circle cx="790" cy="6" r="1" fill="white" fill-opacity="0.3"/>
<circle cx="810" cy="6" r="1" fill="white" fill-opacity="0.3"/>
<circle cx="830" cy="6" r="1" fill="white" fill-opacity="0.3"/>
<circle cx="850" cy="6" r="1" fill="white" fill-opacity="0.3"/>
<circle cx="870" cy="6" r="1" fill="white" fill-opacity="0.3"/>
<circle cx="890" cy="6" r="1" fill="white" fill-opacity="0.3"/>
<circle cx="910" cy="6" r="1" fill="white" fill-opacity="0.3"/>
<circle cx="930" cy="6" r="1" fill="white" fill-opacity="0.3"/>
<circle cx="950" cy="6" r="1" fill="white" fill-opacity="0.3"/>
<circle cx="970" cy="6" r="1" fill="white" fill-opacity="0.3"/>
<circle cx="990" cy="6" r="1" fill="white" fill-opacity="0.3"/>
<circle cx="1010" cy="6" r="1" fill="white" fill-opacity="0.3"/>
<circle cx="1030" cy="6" r="1" fill="white" fill-opacity="0.3"/>
<circle cx="1050" cy="6" r="1" fill="white" fill-opacity="0.3"/>
<circle cx="1070" cy="6" r="1" fill="white" fill-opacity="0.3"/>
<circle cx="1090" cy="6" r="1" fill="white" fill-opacity="0.3"/>
<circle cx="1110" cy="6" r="1" fill="white" fill-opacity="0.3"/>
<circle cx="1130" cy="6" r="1" fill="white" fill-opacity="0.3"/>
<circle cx="10" cy="26" r="1" fill="white" fill-opacity="0.3"/>
<circle cx="30" cy="26" r="1" fill="white" fill-opacity="0.3"/>
<circle cx="50" cy="26" r="1" fill="white" fill-opacity="0.3"/>
<circle cx="70" cy="26" r="1" fill="white" fill-opacity="0.3"/>
<circle cx="90" cy="26" r="1" fill="white" fill-opacity="0.3"/>
<circle cx="110" cy="26" r="1" fill="white" fill-opacity="0.3"/>
<circle cx="130" cy="26" r="1" fill="white" fill-opacity="0.3"/>
<circle cx="150" cy="26" r="1" fill="white" fill-opacity="0.3"/>
<circle cx="170" cy="26" r="1" fill="white" fill-opacity="0.3"/>
<circle cx="190" cy="26" r="1" fill="white" fill-opacity="0.3"/>
<circle cx="210" cy="26" r="1" fill="white" fill-opacity="0.3"/>
<circle cx="230" cy="26" r="1" fill="white" fill-opacity="0.3"/>
<circle cx="250" cy="26" r="1" fill="white" fill-opacity="0.3"/>
<circle cx="270" cy="26" r="1" fill="white" fill-opacity="0.3"/>
<circle cx="290" cy="26" r="1" fill="white" fill-opacity="0.3"/>
<circle cx="310" cy="26" r="1" fill="white" fill-opacity="0.3"/>
<circle cx="330" cy="26" r="1" fill="white" fill-opacity="0.3"/>
<circle cx="350" cy="26" r="1" fill="white" fill-opacity="0.3"/>
<circle cx="370" cy="26" r="1" fill="white" fill-opacity="0.3"/>
<circle cx="390" cy="26" r="1" fill="white" fill-opacity="0.3"/>
<circle cx="410" cy="26" r="1" fill="white" fill-opacity="0.3"/>
<circle cx="430" cy="26" r="1" fill="white" fill-opacity="0.3"/>
<circle cx="450" cy="26" r="1" fill="white" fill-opacity="0.3"/>
<circle cx="470" cy="26" r="1" fill="white" fill-opacity="0.3"/>
<circle cx="490" cy="26" r="1" fill="white" fill-opacity="0.3"/>
<circle cx="510" cy="26" r="1" fill="white" fill-opacity="0.3"/>
<circle cx="530" cy="26" r="1" fill="white" fill-opacity="0.3"/>
<circle cx="550" cy="26" r="1" fill="white" fill-opacity="0.3"/>
<circle cx="570" cy="26" r="1" fill="white" fill-opacity="0.3"/>
<circle cx="590" cy="26" r="1" fill="white" fill-opacity="0.3"/>
<circle cx="610" cy="26" r="1" fill="white" fill-opacity="0.3"/>
<circle cx="630" cy="26" r="1" fill="white" fill-opacity="0.3"/>
<circle cx="650" cy="26" r="1" fill="white" fill-opacity="0.3"/>
<circle cx="670" cy="26" r="1" fill="white" fill-opacity="0.3"/>
<circle cx="690" cy="26" r="1" fill="white" fill-opacity="0.3"/>
<circle cx="710" cy="26" r="1" fill="white" fill-opacity="0.3"/>
<circle cx="730" cy="26" r="1" fill="white" fill-opacity="0.3"/>
<circle cx="750" cy="26" r="1" fill="white" fill-opacity="0.3"/>
<circle cx="770" cy="26" r="1" fill="white" fill-opacity="0.3"/>
<circle cx="790" cy="26" r="1" fill="white" fill-opacity="0.3"/>
<circle cx="810" cy="26" r="1" fill="white" fill-opacity="0.3"/>
<circle cx="830" cy="26" r="1" fill="white" fill-opacity="0.3"/>
<circle cx="850" cy="26" r="1" fill="white" fill-opacity="0.3"/>
<circle cx="870" cy="26" r="1" fill="white" fill-opacity="0.3"/>
<circle cx="890" cy="26" r="1" fill="white" fill-opacity="0.3"/>
<circle cx="910" cy="26" r="1" fill="white" fill-opacity="0.3"/>
<circle cx="930" cy="26" r="1" fill="white" fill-opacity="0.3"/>
<circle cx="950" cy="26" r="1" fill="white" fill-opacity="0.3"/>
<circle cx="970" cy="26" r="1" fill="white" fill-opacity="0.3"/>
<circle cx="990" cy="26" r="1" fill="white" fill-opacity="0.3"/>
<circle cx="1010" cy="26" r="1" fill="white" fill-opacity="0.3"/>
<circle cx="1030" cy="26" r="1" fill="white" fill-opacity="0.3"/>
<circle cx="1050" cy="26" r="1" fill="white" fill-opacity="0.3"/>
<circle cx="1070" cy="26" r="1" fill="white" fill-opacity="0.3"/>
<circle cx="1090" cy="26" r="1" fill="white" fill-opacity="0.3"/>
<circle cx="1110" cy="26" r="1" fill="white" fill-opacity="0.3"/>
<circle cx="1130" cy="26" r="1" fill="white" fill-opacity="0.3"/>
<circle cx="10" cy="46" r="1" fill="white" fill-opacity="0.3"/>
<circle cx="30" cy="46" r="1" fill="white" fill-opacity="0.3"/>
<circle cx="50" cy="46" r="1" fill="white" fill-opacity="0.3"/>
<circle cx="70" cy="46" r="1" fill="white" fill-opacity="0.3"/>
<circle cx="90" cy="46" r="1" fill="white" fill-opacity="0.3"/>
<circle cx="110" cy="46" r="1" fill="white" fill-opacity="0.3"/>
<circle cx="130" cy="46" r="1" fill="white" fill-opacity="0.3"/>
<circle cx="150" cy="46" r="1" fill="white" fill-opacity="0.3"/>
<circle cx="170" cy="46" r="1" fill="white" fill-opacity="0.3"/>
<circle cx="190" cy="46" r="1" fill="white" fill-opacity="0.3"/>
<circle cx="210" cy="46" r="1" fill="white" fill-opacity="0.3"/>
<circle cx="230" cy="46" r="1" fill="white" fill-opacity="0.3"/>
<circle cx="250" cy="46" r="1" fill="white" fill-opacity="0.3"/>
<circle cx="270" cy="46" r="1" fill="white" fill-opacity="0.3"/>
<circle cx="290" cy="46" r="1" fill="white" fill-opacity="0.3"/>
<circle cx="310" cy="46" r="1" fill="white" fill-opacity="0.3"/>
<circle cx="330" cy="46" r="1" fill="white" fill-opacity="0.3"/>
<circle cx="350" cy="46" r="1" fill="white" fill-opacity="0.3"/>
<circle cx="370" cy="46" r="1" fill="white" fill-opacity="0.3"/>
<circle cx="390" cy="46" r="1" fill="white" fill-opacity="0.3"/>
<circle cx="410" cy="46" r="1" fill="white" fill-opacity="0.3"/>
<circle cx="430" cy="46" r="1" fill="white" fill-opacity="0.3"/>
<circle cx="450" cy="46" r="1" fill="white" fill-opacity="0.3"/>
<circle cx="470" cy="46" r="1" fill="white" fill-opacity="0.3"/>
<circle cx="490" cy="46" r="1" fill="white" fill-opacity="0.3"/>
<circle cx="510" cy="46" r="1" fill="white" fill-opacity="0.3"/>
<circle cx="530" cy="46" r="1" fill="white" fill-opacity="0.3"/>
<circle cx="550" cy="46" r="1" fill="white" fill-opacity="0.3"/>
<circle cx="570" cy="46" r="1" fill="white" fill-opacity="0.3"/>
<circle cx="590" cy="46" r="1" fill="white" fill-opacity="0.3"/>
<circle cx="610" cy="46" r="1" fill="white" fill-opacity="0.3"/>
<circle cx="630" cy="46" r="1" fill="white" fill-opacity="0.3"/>
<circle cx="650" cy="46" r="1" fill="white" fill-opacity="0.3"/>
<circle cx="670" cy="46" r="1" fill="white" fill-opacity="0.3"/>
<circle cx="690" cy="46" r="1" fill="white" fill-opacity="0.3"/>
<circle cx="710" cy="46" r="1" fill="white" fill-opacity="0.3"/>
<circle cx="730" cy="46" r="1" fill="white" fill-opacity="0.3"/>
<circle cx="750" cy="46" r="1" fill="white" fill-opacity="0.3"/>
<circle cx="770" cy="46" r="1" fill="white" fill-opacity="0.3"/>
<circle cx="790" cy="46" r="1" fill="white" fill-opacity="0.3"/>
<circle cx="810" cy="46" r="1" fill="white" fill-opacity="0.3"/>
<circle cx="830" cy="46" r="1" fill="white" fill-opacity="0.3"/>
<circle cx="850" cy="46" r="1" fill="white" fill-opacity="0.3"/>
<circle cx="870" cy="46" r="1" fill="white" fill-opacity="0.3"/>
<circle cx="890" cy="46" r="1" fill="white" fill-opacity="0.3"/>
<circle cx="910" cy="46" r="1" fill="white" fill-opacity="0.3"/>
<circle cx="930" cy="46" r="1" fill="white" fill-opacity="0.3"/>
<circle cx="950" cy="46" r="1" fill="white" fill-opacity="0.3"/>
<circle cx="970" cy="46" r="1" fill="white" fill-opacity="0.3"/>
<circle cx="990" cy="46" r="1" fill="white" fill-opacity="0.3"/>
<circle cx="1010" cy="46" r="1" fill="white" fill-opacity="0.3"/>
<circle cx="1030" cy="46" r="1" fill="white" fill-opacity="0.3"/>
<circle cx="1050" cy="46" r="1" fill="white" fill-opacity="0.3"/>
<circle cx="1070" cy="46" r="1" fill="white" fill-opacity="0.3"/>
<circle cx="1090" cy="46" r="1" fill="white" fill-opacity="0.3"/>
<circle cx="1110" cy="46" r="1" fill="white" fill-opacity="0.3"/>
<circle cx="1130" cy="46" r="1" fill="white" fill-opacity="0.3"/>
</svg>
