<svg width="24" height="24" viewBox="0 0 24 24" fill="none" xmlns="http://www.w3.org/2000/svg">
<path d="M19.7342 8.08014V5.06204L15.1411 0.46875H2.67285C2.15507 0.46875 1.73535 0.88847 1.73535 1.40625V22.5938C1.73535 23.1116 2.15507 23.5313 2.67285 23.5313H18.7967C19.3145 23.5313 19.7342 23.1116 19.7342 22.5938V18V8.08014Z" fill="white"/>
<path d="M16.7192 4.12443C16.7192 4.64221 17.139 5.06193 17.6567 5.06193H19.7343L16.7192 2.04688V4.12443Z" fill="#C8F5FF"/>
<path d="M18.7969 24H2.6731C1.89769 24 1.26685 23.3692 1.26685 22.5937V14.1094C1.26685 13.8505 1.47671 13.6406 1.7356 13.6406C1.99449 13.6406 2.20435 13.8505 2.20435 14.1094V22.5937C2.20435 22.8522 2.41463 23.0625 2.6731 23.0625H18.7969C19.0554 23.0625 19.2657 22.8522 19.2657 22.5937V18C19.2657 17.7411 19.4755 17.5312 19.7344 17.5312C19.9933 17.5312 20.2032 17.7411 20.2032 18V22.5937C20.2032 23.3692 19.5723 24 18.7969 24Z" fill="black"/>
<path d="M21.5745 8.77258C21.1719 8.36992 20.7031 8.07325 20.2032 7.88045V5.06199C20.2028 5.06195 20.2025 5.0619 20.2021 5.0619C20.202 4.93998 20.1555 4.82017 20.0659 4.73054L15.4727 0.137344C15.3831 0.0477189 15.2632 0.00126563 15.1413 0.00121875C15.1413 0.000796877 15.1413 0.000421876 15.1413 0H2.6731C1.89769 0 1.26685 0.630845 1.26685 1.40625V10.1406C1.26685 10.3995 1.47671 10.6094 1.7356 10.6094C1.99449 10.6094 2.20435 10.3995 2.20435 10.1406V1.40621C2.20435 1.14774 2.41463 0.937455 2.6731 0.937455H14.6725V4.12449C14.6725 4.8999 15.3034 5.53075 16.0788 5.53075H19.2657V7.64547C18.0936 7.49973 16.8687 7.87469 15.9708 8.77258L9.29008 15.4532C9.10703 15.6363 9.10703 15.9331 9.29008 16.1162C9.47313 16.2992 9.76994 16.2992 9.95304 16.1162L16.6337 9.43549C17.8131 8.25611 19.7322 8.25606 20.9116 9.43549C22.0911 10.6149 22.0911 12.534 20.9116 13.7134L14.646 19.979C13.9106 20.7144 12.7139 20.7144 11.9785 19.979C11.6222 19.6227 11.426 19.149 11.426 18.6452C11.426 18.1414 11.6222 17.6676 11.9785 17.3114L18.2745 11.0153C18.4133 10.8766 18.5978 10.8001 18.794 10.8001C18.9902 10.8001 19.1747 10.8765 19.3135 11.0153C19.4522 11.1541 19.5286 11.3386 19.5286 11.5348C19.5286 11.731 19.4522 11.9155 19.3134 12.0543L13.6391 17.7286C13.456 17.9116 13.456 18.2084 13.6391 18.3915C13.8221 18.5745 14.1189 18.5745 14.302 18.3915L19.9763 12.7172C20.2922 12.4014 20.4661 11.9814 20.4661 11.5348C20.4661 11.0882 20.2922 10.6682 19.9764 10.3524C19.6606 10.0366 19.2406 9.86261 18.794 9.86261C18.3474 9.86261 17.9275 10.0366 17.6116 10.3524L11.3156 16.6484C10.2146 17.7494 10.2146 19.5409 11.3156 20.6419C11.8661 21.1924 12.5891 21.4677 13.3122 21.4676C14.0352 21.4675 14.7585 21.1923 15.3089 20.6419L21.5745 14.3763C23.1195 12.8314 23.1195 10.3175 21.5745 8.77258ZM16.0788 4.59324C15.8203 4.59324 15.61 4.38296 15.61 4.12449V1.60046L18.6028 4.59324H16.0788Z" fill="black"/>
<path d="M1.73584 12.6191C1.61209 12.6191 1.49162 12.5694 1.40397 12.4818C1.31678 12.3946 1.26709 12.2737 1.26709 12.1504C1.26709 12.0271 1.31678 11.9062 1.40397 11.819C1.49162 11.7318 1.61209 11.6816 1.73584 11.6816C1.85912 11.6816 1.98006 11.7318 2.06725 11.819C2.15444 11.9062 2.20459 12.0271 2.20459 12.1504C2.20459 12.2737 2.15444 12.3946 2.06725 12.4818C1.98006 12.5694 1.85912 12.6191 1.73584 12.6191Z" fill="black"/>
<path d="M8.12994 17.693C7.93227 17.693 7.74847 17.567 7.68416 17.3688L7.67488 17.3402C7.59495 17.0939 7.72981 16.8295 7.97605 16.7496C8.22228 16.6697 8.48671 16.8045 8.56663 17.0508L8.57591 17.0794C8.65583 17.3256 8.52097 17.5901 8.27474 17.67C8.22669 17.6855 8.17789 17.693 8.12994 17.693Z" fill="black"/>
</svg>
