<svg width="64" height="64" viewBox="0 0 64 64" fill="none" xmlns="http://www.w3.org/2000/svg">
<path d="M38.6741 38.5682C38.1111 38.1274 37.2976 38.2265 36.8565 38.7893L26.8369 51.5834L31.4501 39.4549C31.7072 38.7791 31.6158 38.0204 31.2053 37.4252C30.7948 36.8299 30.1182 36.4745 29.3952 36.4745H16.7216L20.7938 29.4407C21.152 28.8219 20.9409 28.0299 20.3221 27.6715C19.703 27.3135 18.9109 27.5245 18.5528 28.1434L14.1411 35.7639C13.7425 36.4519 13.7416 37.2743 14.139 37.9633C14.5363 38.6526 15.2484 39.0639 16.0438 39.0639H28.8284L23.5004 53.0724C23.1048 54.1128 23.5054 55.2214 24.4746 55.7687C24.8266 55.9673 25.2031 56.0637 25.5731 56.0635C26.2215 56.0635 26.8492 55.7676 27.2862 55.2098L38.8953 40.3859C39.3361 39.823 39.2372 39.0093 38.6741 38.5682Z" fill="#FDC430"/>
<path d="M45.7987 25.8066H31.6794L33.6992 10.421C33.8374 9.36863 33.2319 8.39495 32.2269 8.05344C31.2215 7.71107 30.1486 8.11448 29.6167 9.03335L23.1969 20.1223C22.8387 20.7412 23.0498 21.5331 23.6687 21.8916C24.2875 22.2497 25.0796 22.0386 25.4379 21.4197L30.8771 12.0242L29.0541 25.9112C28.9716 26.5388 29.1637 27.1715 29.5811 27.6472C29.9985 28.1231 30.601 28.3959 31.234 28.3959H44.9961L42.5531 31.5155C42.1124 32.0783 42.2113 32.8921 42.7743 33.3332C43.0112 33.5185 43.2923 33.6084 43.5716 33.6084C43.956 33.6084 44.3366 33.4381 44.592 33.112L47.5298 29.3606C48.0525 28.693 48.1466 27.8046 47.7753 27.0424C47.4041 26.2802 46.6467 25.8066 45.7987 25.8066Z" fill="#FDC430"/>
</svg>
