<svg width="64" height="64" viewBox="0 0 64 64" fill="none" xmlns="http://www.w3.org/2000/svg">
<path d="M33.8794 44.2666H24.9638C23.9795 44.2666 23.1807 43.4629 23.1807 42.4727C23.1807 41.4824 23.9795 40.6787 24.9638 40.6787H33.8794C35.8444 40.6787 37.4457 39.0714 37.4457 37.0909C37.4457 35.1104 35.8444 33.503 33.8794 33.503H30.3132C26.3796 33.503 23.1807 30.2847 23.1807 26.3272C23.1807 22.3698 26.3796 19.1515 30.3132 19.1515H39.2288C40.2131 19.1515 41.0119 19.9552 41.0119 20.9454C41.0119 21.9357 40.2131 22.7394 39.2288 22.7394H30.3132C28.3482 22.7394 26.7469 24.3467 26.7469 26.3272C26.7469 28.3077 28.3482 29.9151 30.3132 29.9151H33.8794C37.813 29.9151 41.0119 33.1334 41.0119 37.0909C41.0119 41.0483 37.813 44.2666 33.8794 44.2666Z" fill="#72B407"/>
<path d="M32.0966 49.6485C31.1123 49.6485 30.3135 48.8448 30.3135 47.8545V42.4727C30.3135 41.4825 31.1123 40.6788 32.0966 40.6788C33.0809 40.6788 33.8797 41.4825 33.8797 42.4727V47.8545C33.8797 48.8448 33.0809 49.6485 32.0966 49.6485Z" fill="#72B407"/>
<path d="M32.0966 22.7394C31.1123 22.7394 30.3135 21.9357 30.3135 20.9455V15.5636C30.3135 14.5734 31.1123 13.7697 32.0966 13.7697C33.0809 13.7697 33.8797 14.5734 33.8797 15.5636V20.9455C33.8797 21.9357 33.0809 22.7394 32.0966 22.7394Z" fill="#72B407"/>
<path d="M62.217 14.3515C61.2327 14.3515 60.4339 13.5478 60.4339 12.5576V3.58787H51.5182C50.5339 3.58787 49.7351 2.78419 49.7351 1.79394C49.7351 0.803683 50.5339 0 51.5182 0H62.217C63.2013 0 64.0001 0.803683 64.0001 1.79394V12.5576C64.0001 13.5478 63.2013 14.3515 62.217 14.3515Z" fill="#72B407"/>
<path d="M1.78326 49.6485C2.76755 49.6485 3.56638 50.4522 3.56638 51.4424L3.56638 60.4121L12.482 60.4121C13.4663 60.4121 14.2651 61.2158 14.2651 62.2061C14.2651 63.1963 13.4663 64 12.482 64L1.78326 64C0.798973 64 0.000132631 63.1963 0.000132717 62.2061L0.000133652 51.4424C0.000133738 50.4522 0.798974 49.6485 1.78326 49.6485Z" fill="#72B407"/>
</svg>
