<svg width="64" height="64" viewBox="0 0 64 64" fill="none" xmlns="http://www.w3.org/2000/svg">
<path d="M31.1583 55.0549C31.3604 55.3145 31.671 55.4662 31.9999 55.4662C32.3289 55.4662 32.6394 55.3145 32.8415 55.0549L55.2415 26.2549C55.4915 25.9334 55.5366 25.4976 55.3578 25.1317C55.338 25.0972 55.3159 25.0641 55.2917 25.0325H55.3002L47.8335 13.2992C47.6327 13.0004 47.2932 12.8246 46.9333 12.8331V12.8H17.0666V12.8331C16.7076 12.8234 16.3684 12.997 16.1663 13.2939L8.69965 25.0272H8.70819C8.68395 25.0587 8.66186 25.0919 8.64205 25.1264C8.46321 25.4923 8.50832 25.9281 8.75832 26.2496L31.1583 55.0549ZM33.9434 14.9333H44.9898L39.4666 23.6128L33.9434 14.9333ZM37.5231 24.5333H26.4767L31.9999 15.8539L37.5231 24.5333ZM24.5333 23.6128L19.0101 14.9333H30.0565L24.5333 23.6128ZM11.7813 26.6667H23.7151L30.0341 50.1333L11.7813 26.6667ZM34.0063 50.0832L37.4399 37.6533C37.5799 37.092 37.2469 36.5213 36.6893 36.3671C36.1317 36.2129 35.5528 36.5313 35.3845 37.0848L32.0149 49.28L25.9253 26.6667H38.0853L36.769 31.7323C36.6569 32.1066 36.7585 32.5123 37.0338 32.7896C37.3091 33.0669 37.7139 33.1715 38.0891 33.0623C38.4643 32.953 38.7497 32.6474 38.833 32.2656L40.2911 26.6667H52.2186L34.0063 50.0832ZM52.4565 24.5333H41.4101L46.9333 15.8539L52.4565 24.5333ZM17.0666 15.8539L22.5898 24.5333H11.5434L17.0666 15.8539Z" fill="#F26C5D"/>
<path d="M1.06667 33.0667H4.26667C4.85577 33.0667 5.33333 32.5891 5.33333 32C5.33333 31.4109 4.85577 30.9333 4.26667 30.9333H1.06667C0.477563 30.9333 0 31.4109 0 32C0 32.5891 0.477563 33.0667 1.06667 33.0667Z" fill="#F26C5D"/>
<path d="M59.7334 33.0667H62.9334C63.5225 33.0667 64.0001 32.5891 64.0001 32C64.0001 31.4109 63.5225 30.9333 62.9334 30.9333H59.7334C59.1443 30.9333 58.6667 31.4109 58.6667 32C58.6667 32.5891 59.1443 33.0667 59.7334 33.0667Z" fill="#F26C5D"/>
<path d="M33.0667 62.9333V59.7333C33.0667 59.1442 32.5891 58.6666 32 58.6666C31.4109 58.6666 30.9333 59.1442 30.9333 59.7333V62.9333C30.9333 63.5224 31.4109 63.9999 32 63.9999C32.5891 63.9999 33.0667 63.5224 33.0667 62.9333Z" fill="#F26C5D"/>
<path d="M32 5.33333C32.5891 5.33333 33.0667 4.85577 33.0667 4.26667V1.06667C33.0667 0.477563 32.5891 0 32 0C31.4109 0 30.9333 0.477563 30.9333 1.06667V4.26667C30.9333 4.85577 31.4109 5.33333 32 5.33333Z" fill="#F26C5D"/>
<path d="M11.6351 50.8565L9.37266 53.12C9.0845 53.3852 8.96485 53.787 9.06098 54.1666C9.15711 54.5463 9.45355 54.8427 9.8332 54.9388C10.2128 55.035 10.6146 54.9153 10.8799 54.6272L13.1423 52.3648C13.5465 51.9462 13.5407 51.2809 13.1293 50.8695C12.7178 50.458 12.0525 50.4523 11.634 50.8565H11.6351Z" fill="#F26C5D"/>
<path d="M51.6108 13.456C51.8937 13.4559 52.165 13.3435 52.3649 13.1435L54.6273 10.88C54.9155 10.6148 55.0351 10.213 54.939 9.83335C54.8429 9.4537 54.5465 9.15726 54.1668 9.06113C53.7872 8.96501 53.3854 9.08465 53.1201 9.37281L50.8577 11.6352C50.5528 11.9403 50.4616 12.399 50.6266 12.7975C50.7917 13.196 51.1805 13.4559 51.6119 13.456H51.6108Z" fill="#F26C5D"/>
<path d="M53.8731 54.9397C54.3044 54.9396 54.6933 54.6797 54.8583 54.2812C55.0234 53.8827 54.9322 53.424 54.6272 53.1189L52.3648 50.8565C51.9463 50.4523 51.281 50.458 50.8695 50.8695C50.4581 51.2809 50.4523 51.9462 50.8566 52.3648L53.12 54.6272C53.3197 54.827 53.5906 54.9394 53.8731 54.9397Z" fill="#F26C5D"/>
<path d="M11.6351 13.1435C12.0536 13.5477 12.7189 13.5419 13.1303 13.1305C13.5418 12.719 13.5476 12.0537 13.1433 11.6352L10.8799 9.37281C10.6146 9.08465 10.2128 8.96501 9.8332 9.06113C9.45355 9.15726 9.15711 9.4537 9.06098 9.83335C8.96485 10.213 9.0845 10.6148 9.37266 10.88L11.6351 13.1435Z" fill="#F26C5D"/>
</svg>
