<svg width="159" height="44" viewBox="0 0 159 44" fill="none" xmlns="http://www.w3.org/2000/svg">
<circle cx="22" cy="22" r="21.5" fill="#FDC430" stroke="white"/>
<circle cx="38" cy="22" r="14" fill="#FDC430" stroke="white" stroke-width="2"/>
<path d="M65.48 9.888C59.16 9.888 57.816 13.296 57.816 15.776V16.256C57.816 18.688 59.144 22.208 65.48 22.208H66.2C72.568 22.208 73.864 18.688 73.864 16.256V15.776C73.864 13.312 72.552 9.888 66.2 9.888H65.48ZM69.352 16.08C69.352 17.232 68.84 18.928 65.848 18.928C62.856 18.928 62.328 17.232 62.328 16.08V15.904C62.328 14.752 62.824 13.12 65.832 13.12C68.84 13.12 69.352 14.752 69.352 15.904V16.08ZM80.3515 13.136H84.7515C85.8875 13.136 86.1435 13.6 86.1435 14.112V14.144C86.1435 14.656 85.8875 15.168 84.7515 15.168H80.3515V13.136ZM87.9515 16.272C89.3115 16.016 90.6235 15.152 90.6235 13.456V13.344C90.6235 11.792 89.9995 10.096 85.6475 10.096H76.0315V22H80.3515V18.272H84.1275C85.8235 18.272 86.3515 18.72 86.3515 20.256V21.264C86.3515 21.712 86.4155 21.936 86.4635 22H90.8955V21.92C90.7835 21.744 90.7195 21.568 90.7195 20.944V19.104C90.7195 17.248 89.4875 16.528 87.9515 16.272ZM101.735 17.28H98.0868L99.8948 13.216L101.735 17.28ZM103.863 22H108.439L102.807 10.096H97.1588L91.6547 22H95.9588L96.8228 20.064H102.983L103.863 22ZM120.599 22H124.743V10.096H120.535V16.752L114.119 10.096H109.719V22H113.927V15.136L120.599 22ZM134.254 22.176C137.294 22.176 138.734 20.896 139.102 20.48C139.326 20.864 139.582 21.584 139.678 22H142.734V15.344H134.702V17.568H138.11C138.03 17.936 137.438 19.008 134.846 19.008C132.158 19.008 131.39 17.424 131.39 16.08V15.92C131.39 14.512 132.094 13.088 134.846 13.088C137.518 13.088 137.934 14.048 138.062 14.352H142.59V14.288C142.59 12.56 141.326 9.904 135.118 9.904H134.558C128.43 9.904 126.91 13.216 126.91 15.84V16.16C126.91 18.88 128.51 22.176 133.982 22.176H134.254ZM145.235 10.096V22H157.235V19.088H149.539V17.456H156.883V14.496H149.539V12.976H157.123V10.096H145.235ZM65.48 25.888C59.16 25.888 57.816 29.296 57.816 31.776V32.256C57.816 34.688 59.144 38.208 65.48 38.208H66.2C72.568 38.208 73.864 34.688 73.864 32.256V31.776C73.864 29.312 72.552 25.888 66.2 25.888H65.48ZM69.352 32.08C69.352 33.232 68.84 34.928 65.848 34.928C62.856 34.928 62.328 33.232 62.328 32.08V31.904C62.328 30.752 62.824 29.12 65.832 29.12C68.84 29.12 69.352 30.752 69.352 31.904V32.08ZM80.3515 29.136H84.7515C85.8875 29.136 86.1435 29.6 86.1435 30.112V30.144C86.1435 30.656 85.8875 31.168 84.7515 31.168H80.3515V29.136ZM87.9515 32.272C89.3115 32.016 90.6235 31.152 90.6235 29.456V29.344C90.6235 27.792 89.9995 26.096 85.6475 26.096H76.0315V38H80.3515V34.272H84.1275C85.8235 34.272 86.3515 34.72 86.3515 36.256V37.264C86.3515 37.712 86.4155 37.936 86.4635 38H90.8955V37.92C90.7835 37.744 90.7195 37.568 90.7195 36.944V35.104C90.7195 33.248 89.4875 32.528 87.9515 32.272ZM101.735 33.28H98.0868L99.8948 29.216L101.735 33.28ZM103.863 38H108.439L102.807 26.096H97.1588L91.6547 38H95.9588L96.8228 36.064H102.983L103.863 38ZM120.599 38H124.743V26.096H120.535V32.752L114.119 26.096H109.719V38H113.927V31.136L120.599 38ZM134.254 38.176C137.294 38.176 138.734 36.896 139.102 36.48C139.326 36.864 139.582 37.584 139.678 38H142.734V31.344H134.702V33.568H138.11C138.03 33.936 137.438 35.008 134.846 35.008C132.158 35.008 131.39 33.424 131.39 32.08V31.92C131.39 30.512 132.094 29.088 134.846 29.088C137.518 29.088 137.934 30.048 138.062 30.352H142.59V30.288C142.59 28.56 141.326 25.904 135.118 25.904H134.558C128.43 25.904 126.91 29.216 126.91 31.84V32.16C126.91 34.88 128.51 38.176 133.982 38.176H134.254ZM145.235 26.096V38H157.235V35.088H149.539V33.456H156.883V30.496H149.539V28.976H157.123V26.096H145.235Z" fill="#FDC430"/>
</svg>
