<svg width="164" height="28" viewBox="0 0 164 28" fill="none" xmlns="http://www.w3.org/2000/svg">
<path d="M2.98722 3.39353V13.1771H17.8849L16.9584 15.2894H2.98722V24.7394H19.8119V27H0.430161V1.13294H19.8119V3.39353H2.98722ZM43.9798 16.4753C43.9798 19.9341 42.9792 22.6147 40.978 24.5171C38.9521 26.4194 36.2962 27.3706 33.0104 27.3706C29.7739 27.3706 27.1057 26.4194 25.0057 24.5171C22.9551 22.6641 21.9298 19.9835 21.9298 16.4753V1.13294H24.5239L24.561 16.4382C24.561 19.3288 25.3392 21.4782 26.8957 22.8865C28.4027 24.3441 30.441 25.0729 33.0104 25.0729C35.5551 25.0729 37.5933 24.3441 39.1251 22.8865C40.6321 21.4535 41.3857 19.3041 41.3857 16.4382V1.13294H43.9798V16.4753ZM67.4852 27H64.2981L55.8858 15.7712L49.4376 15.8082V27H46.8805V15.8453H45.287V13.6588H46.8805V1.13294H56.2564C59.4434 1.13294 61.7411 1.68882 63.1493 2.80059C63.8658 3.36882 64.4093 4.11 64.7799 5.02412C65.1752 5.93823 65.3729 6.95118 65.3729 8.06294C65.3729 10.0641 64.7305 11.7071 63.4458 12.9918C62.2846 14.1529 60.7158 14.9312 58.7393 15.3265L67.4852 27ZM54.6258 13.6588C57.5905 13.6588 59.6658 13.14 60.8517 12.1024C62.0623 11.04 62.6676 9.69353 62.6676 8.06294C62.6676 4.92529 60.5181 3.35647 56.2193 3.35647H49.4376V13.6588H54.6258ZM84.3901 27.3706C81.376 27.3706 78.6583 26.8024 76.2372 25.6659C73.816 24.5047 71.9136 22.9112 70.5301 20.8853C69.1713 18.8347 68.4919 16.5371 68.4919 13.9924C68.4919 11.4724 69.1713 9.21176 70.5301 7.21059C71.8889 5.1847 73.7789 3.60353 76.2001 2.46706C78.6213 1.33059 81.3513 0.762353 84.3901 0.762353C87.4536 0.762353 90.196 1.33059 92.6172 2.46706C95.0383 3.57882 96.9283 5.14765 98.2872 7.17353C99.646 9.17471 100.325 11.4476 100.325 13.9924C100.325 16.5618 99.6336 18.8594 98.2501 20.8853C96.8913 22.9112 95.0013 24.5047 92.5801 25.6659C90.1589 26.8024 87.4289 27.3706 84.3901 27.3706ZM71.2713 13.9924C71.296 16.1418 71.8642 18.0565 72.976 19.7365C74.0878 21.3918 75.6319 22.6888 77.6083 23.6276C79.6095 24.5665 81.8701 25.0359 84.3901 25.0359C86.9348 25.0359 89.2078 24.5665 91.2089 23.6276C93.2348 22.6888 94.8036 21.3794 95.9154 19.6994C97.0519 18.0194 97.6078 16.1171 97.5831 13.9924C97.5583 11.8924 96.9778 10.0271 95.8413 8.39647C94.7048 6.74118 93.136 5.45647 91.1348 4.54235C89.1583 3.60353 86.9101 3.13412 84.3901 3.13412C81.8701 3.13412 79.6219 3.60353 77.6454 4.54235C75.6689 5.45647 74.1125 6.74118 72.976 8.39647C71.8642 10.0271 71.296 11.8924 71.2713 13.9924ZM131.52 1.13294V27H128.852V6.87706L117.216 21.9229H116.548L104.838 6.87706V27H102.244V1.13294H103.467L116.845 18.3282L130.26 1.13294H131.52ZM134.083 1.13294H136.678V27H134.083V1.13294ZM163.207 27L141.861 1.13294H138.6L159.946 27H163.207ZM162.985 1.13294H159.761L150.867 11.88H154.128L162.985 1.13294ZM138.378 27H141.565L150.756 16.0306H147.457L138.378 27Z" fill="#333333"/>
</svg>
