<svg width="36" height="36" viewBox="0 0 36 36" fill="none" xmlns="http://www.w3.org/2000/svg">
<path fill-rule="evenodd" clip-rule="evenodd" d="M10.3734 9.37344C10.8714 8.87552 11.6786 8.87552 12.1766 9.37344L18.5 15.6969L24.8234 9.37344C25.3214 8.87552 26.1286 8.87552 26.6266 9.37344C27.1245 9.87136 27.1245 10.6786 26.6266 11.1766L20.3031 17.5L26.6266 23.8234C27.1245 24.3214 27.1245 25.1286 26.6266 25.6266C26.1286 26.1245 25.3214 26.1245 24.8234 25.6266L18.5 19.3031L12.1766 25.6266C11.6786 26.1245 10.8714 26.1245 10.3734 25.6266C9.87552 25.1286 9.87552 24.3214 10.3734 23.8234L16.6969 17.5L10.3734 11.1766C9.87552 10.6786 9.87552 9.87136 10.3734 9.37344Z" fill="black"/>
</svg>
