<svg width="898" height="405" viewBox="0 0 898 405" fill="none" xmlns="http://www.w3.org/2000/svg">
<g clip-path="url(#clip0)">
<path d="M66.9744 255.46C147.744 305.51 258.654 294.66 348.714 285.8C451.684 275.67 555.104 257.17 658.854 267.25C745.704 275.69 832.294 305.61 897.854 363.2C992.204 446.08 1037.14 571.18 1151.02 633.62C1229.46 676.62 1325.34 698.59 1406.98 651.17L1406.98 -23.9999L162.244 -24C146.194 -16.67 130.414 -8.7401 114.934 -0.170096C56.5243 32.1699 -2.53559 84.4099 0.0843966 151.13C1.77433 194.1 30.4143 232.8 66.9744 255.46Z" fill="url(#paint0_radial)" fill-opacity="0.3"/>
</g>
<defs>
<radialGradient id="paint0_radial" cx="0" cy="0" r="1" gradientUnits="userSpaceOnUse" gradientTransform="translate(820.174 329.321) rotate(-150.133) scale(554.686 276.848)">
<stop stop-color="#81D3ED"/>
<stop offset="0.2614" stop-color="#86D4ED" stop-opacity="0.9434"/>
<stop offset="0.3977" stop-color="#8DD6EE" stop-opacity="0.9139"/>
<stop offset="0.4888" stop-color="#95D9EF" stop-opacity="0.7756"/>
<stop offset="0.6281" stop-color="#AAE0F2" stop-opacity="0.5643"/>
<stop offset="0.7981" stop-color="#CDEDF7" stop-opacity="0.3063"/>
<stop offset="0.9909" stop-color="#FDFEFF" stop-opacity="0.0138"/>
<stop offset="1" stop-color="white" stop-opacity="0"/>
</radialGradient>
<clipPath id="clip0">
<rect width="898" height="702" fill="white" transform="translate(0.000244141 -24)"/>
</clipPath>
</defs>
</svg>
